<svg width="248" height="127" viewBox="0 0 248 127" fill="none" xmlns="http://www.w3.org/2000/svg">
<mask id="path-1-inside-1_302_152" fill="white">
<path d="M201.295 93.4185C199.895 93.7185 198.595 94.6186 197.295 95.2186C194.495 96.4186 192.395 96.0185 189.595 95.1185C187.095 94.3185 183.995 93.1186 181.795 95.2186C176.895 99.6186 184.495 102.719 188.495 103.419C192.895 106.519 199.995 105.419 203.595 101.619C206.395 98.4185 207.595 92.3185 201.295 93.4185ZM201.495 99.4185C199.295 101.719 194.195 103.219 190.995 101.419C190.795 100.919 190.395 100.519 189.695 100.519C188.795 100.519 180.995 99.0186 185.995 97.2186C186.695 97.0186 189.595 98.3186 190.195 98.5186C192.795 99.3186 194.295 99.4185 196.795 98.6185C198.595 97.9185 205.195 95.4185 201.495 99.4185Z"/>
</mask>
<path d="M201.295 93.4185C199.895 93.7185 198.595 94.6186 197.295 95.2186C194.495 96.4186 192.395 96.0185 189.595 95.1185C187.095 94.3185 183.995 93.1186 181.795 95.2186C176.895 99.6186 184.495 102.719 188.495 103.419C192.895 106.519 199.995 105.419 203.595 101.619C206.395 98.4185 207.595 92.3185 201.295 93.4185ZM201.495 99.4185C199.295 101.719 194.195 103.219 190.995 101.419C190.795 100.919 190.395 100.519 189.695 100.519C188.795 100.519 180.995 99.0186 185.995 97.2186C186.695 97.0186 189.595 98.3186 190.195 98.5186C192.795 99.3186 194.295 99.4185 196.795 98.6185C198.595 97.9185 205.195 95.4185 201.495 99.4185Z" stroke="#3A3A3A" stroke-width="10" mask="url(#path-1-inside-1_302_152)"/>
<mask id="path-2-inside-2_302_152" fill="white">
<path d="M143.395 62.2186C144.095 59.5186 143.095 56.6186 139.995 55.7186C138.295 55.2186 136.395 55.4186 134.895 56.2186C133.495 56.9186 131.795 57.7186 130.995 59.1186C130.195 60.4186 130.495 62.1186 131.495 63.2186C132.595 64.3186 134.195 64.4186 135.595 64.9186C137.295 65.5186 138.595 66.3186 140.395 66.1186C141.895 65.9186 142.595 65.0186 143.495 63.9186C143.995 63.2186 143.795 62.6186 143.395 62.2186ZM137.395 62.4186C136.695 62.1186 133.495 61.6186 133.595 60.6186C133.695 59.7186 137.095 58.5186 137.795 58.5186C139.895 58.5186 141.395 59.7186 140.395 61.8186C140.195 62.2186 140.195 62.5186 140.295 62.8186C139.395 63.4186 138.495 62.9186 137.395 62.4186Z"/>
</mask>
<path d="M143.395 62.2186C144.095 59.5186 143.095 56.6186 139.995 55.7186C138.295 55.2186 136.395 55.4186 134.895 56.2186C133.495 56.9186 131.795 57.7186 130.995 59.1186C130.195 60.4186 130.495 62.1186 131.495 63.2186C132.595 64.3186 134.195 64.4186 135.595 64.9186C137.295 65.5186 138.595 66.3186 140.395 66.1186C141.895 65.9186 142.595 65.0186 143.495 63.9186C143.995 63.2186 143.795 62.6186 143.395 62.2186ZM137.395 62.4186C136.695 62.1186 133.495 61.6186 133.595 60.6186C133.695 59.7186 137.095 58.5186 137.795 58.5186C139.895 58.5186 141.395 59.7186 140.395 61.8186C140.195 62.2186 140.195 62.5186 140.295 62.8186C139.395 63.4186 138.495 62.9186 137.395 62.4186Z" stroke="#3A3A3A" stroke-width="10" mask="url(#path-2-inside-2_302_152)"/>
<mask id="path-3-inside-3_302_152" fill="white">
<path d="M111.095 74.2186C110.695 73.2186 109.895 72.2186 109.195 71.4186C108.695 70.9186 107.095 69.3186 107.395 70.3186C107.295 69.8186 106.995 69.5186 106.595 69.3186C103.595 67.1186 99.5949 66.2186 95.9949 65.4186C94.3949 65.1186 93.4949 65.4186 92.0949 64.6186C91.1949 64.1186 90.7949 63.3186 89.6949 63.2186C87.5949 63.0186 85.9949 65.2186 85.7949 67.1186C85.4949 69.8186 87.4949 71.3186 89.6949 72.5186C92.7949 74.3186 95.7949 77.9186 99.3949 78.5186C100.895 78.7186 102.195 78.2186 103.695 78.0186C105.595 77.7186 107.995 78.6186 109.795 78.2186C111.595 77.8186 111.695 75.8186 111.095 74.2186ZM102.195 75.3186C98.6949 76.0186 96.5949 73.4186 93.9949 71.6186C93.2949 71.1186 92.2949 70.8186 91.6949 70.3186C90.5949 70.1186 90.0949 69.5186 90.3949 68.4186C89.9949 67.1186 90.0949 66.8186 90.5949 67.4186C91.0949 67.4186 91.9949 68.4186 92.6949 68.5186C93.1949 68.6186 94.2949 68.4186 94.7949 68.5186C96.2949 68.7186 97.0949 69.4186 98.4949 69.8186C100.695 70.5186 102.795 70.5186 104.795 71.7186C104.995 72.0186 105.295 72.1186 105.695 72.6186C106.395 73.3186 107.395 73.6186 107.895 74.5186C107.995 74.7186 108.195 74.9186 108.295 75.0186C108.095 74.9186 107.695 74.8186 106.995 74.8186C105.195 74.7186 103.795 75.0186 102.195 75.3186Z"/>
</mask>
<path d="M111.095 74.2186C110.695 73.2186 109.895 72.2186 109.195 71.4186C108.695 70.9186 107.095 69.3186 107.395 70.3186C107.295 69.8186 106.995 69.5186 106.595 69.3186C103.595 67.1186 99.5949 66.2186 95.9949 65.4186C94.3949 65.1186 93.4949 65.4186 92.0949 64.6186C91.1949 64.1186 90.7949 63.3186 89.6949 63.2186C87.5949 63.0186 85.9949 65.2186 85.7949 67.1186C85.4949 69.8186 87.4949 71.3186 89.6949 72.5186C92.7949 74.3186 95.7949 77.9186 99.3949 78.5186C100.895 78.7186 102.195 78.2186 103.695 78.0186C105.595 77.7186 107.995 78.6186 109.795 78.2186C111.595 77.8186 111.695 75.8186 111.095 74.2186ZM102.195 75.3186C98.6949 76.0186 96.5949 73.4186 93.9949 71.6186C93.2949 71.1186 92.2949 70.8186 91.6949 70.3186C90.5949 70.1186 90.0949 69.5186 90.3949 68.4186C89.9949 67.1186 90.0949 66.8186 90.5949 67.4186C91.0949 67.4186 91.9949 68.4186 92.6949 68.5186C93.1949 68.6186 94.2949 68.4186 94.7949 68.5186C96.2949 68.7186 97.0949 69.4186 98.4949 69.8186C100.695 70.5186 102.795 70.5186 104.795 71.7186C104.995 72.0186 105.295 72.1186 105.695 72.6186C106.395 73.3186 107.395 73.6186 107.895 74.5186C107.995 74.7186 108.195 74.9186 108.295 75.0186C108.095 74.9186 107.695 74.8186 106.995 74.8186C105.195 74.7186 103.795 75.0186 102.195 75.3186Z" stroke="#3A3A3A" stroke-width="10" mask="url(#path-3-inside-3_302_152)"/>
<mask id="path-4-inside-4_302_152" fill="white">
<path d="M121.895 68.7185C121.695 67.1185 120.095 66.1185 118.895 65.3185C117.495 64.5185 116.795 64.6185 116.095 62.7185C115.795 62.1185 115.895 61.4185 115.395 60.8185C114.395 59.6185 112.795 59.7185 111.395 59.8185C108.895 60.0185 106.795 59.1185 104.295 58.9185C103.695 58.8185 103.295 59.1185 103.095 59.4185C102.095 59.6185 101.195 61.0185 102.195 61.9185C106.195 65.8185 111.395 67.7185 115.995 70.6185C117.295 71.4185 118.095 72.3185 119.695 71.6185C121.095 71.3185 121.995 70.1185 121.895 68.7185ZM118.095 68.6185C116.695 67.9185 115.195 67.2185 113.895 66.4185C111.995 65.3185 109.995 64.2185 108.095 63.0185C108.495 63.1185 108.895 63.2185 109.395 63.2185C110.195 63.2185 112.195 62.6185 112.895 63.0185C113.295 63.3185 113.395 65.1185 113.795 65.6185C114.495 66.6185 115.495 67.1185 116.495 67.6185C116.995 67.9185 117.595 68.1185 118.095 68.4185C118.695 68.8185 118.995 69.0185 118.095 68.6185Z"/>
</mask>
<path d="M121.895 68.7185C121.695 67.1185 120.095 66.1185 118.895 65.3185C117.495 64.5185 116.795 64.6185 116.095 62.7185C115.795 62.1185 115.895 61.4185 115.395 60.8185C114.395 59.6185 112.795 59.7185 111.395 59.8185C108.895 60.0185 106.795 59.1185 104.295 58.9185C103.695 58.8185 103.295 59.1185 103.095 59.4185C102.095 59.6185 101.195 61.0185 102.195 61.9185C106.195 65.8185 111.395 67.7185 115.995 70.6185C117.295 71.4185 118.095 72.3185 119.695 71.6185C121.095 71.3185 121.995 70.1185 121.895 68.7185ZM118.095 68.6185C116.695 67.9185 115.195 67.2185 113.895 66.4185C111.995 65.3185 109.995 64.2185 108.095 63.0185C108.495 63.1185 108.895 63.2185 109.395 63.2185C110.195 63.2185 112.195 62.6185 112.895 63.0185C113.295 63.3185 113.395 65.1185 113.795 65.6185C114.495 66.6185 115.495 67.1185 116.495 67.6185C116.995 67.9185 117.595 68.1185 118.095 68.4185C118.695 68.8185 118.995 69.0185 118.095 68.6185Z" stroke="#3A3A3A" stroke-width="10" mask="url(#path-4-inside-4_302_152)"/>
<mask id="path-5-inside-5_302_152" fill="white">
<path d="M121.895 53.0186C121.795 53.0186 121.795 53.0186 121.695 53.0186C121.595 53.0186 121.595 53.0186 121.495 53.0186C121.395 53.0186 121.395 53.0186 121.295 53.0186C121.195 53.0186 121.095 53.0186 120.995 53.0186C120.995 53.0186 120.995 53.0186 120.895 53.0186C119.295 53.0186 117.895 53.4185 116.395 53.6185C114.995 53.8185 113.895 54.6186 113.495 56.0186C113.295 56.8186 113.695 57.7185 114.495 57.8185C115.395 58.0185 116.095 58.7185 116.995 59.1185C117.795 59.4185 118.595 59.5186 119.495 59.5186C120.895 59.5186 122.595 59.7185 123.795 58.8185C126.495 56.9185 124.495 53.5186 121.895 53.0186ZM121.795 56.5186C121.495 56.7186 120.095 56.5186 119.795 56.5186C119.395 56.5186 118.995 56.4185 118.595 56.3185C119.595 56.1185 120.395 55.9186 121.495 56.0186C121.695 56.0186 121.795 56.1185 121.895 56.3185C122.195 56.7185 121.995 56.4186 121.795 56.5186Z"/>
</mask>
<path d="M121.895 53.0186C121.795 53.0186 121.795 53.0186 121.695 53.0186C121.595 53.0186 121.595 53.0186 121.495 53.0186C121.395 53.0186 121.395 53.0186 121.295 53.0186C121.195 53.0186 121.095 53.0186 120.995 53.0186C120.995 53.0186 120.995 53.0186 120.895 53.0186C119.295 53.0186 117.895 53.4185 116.395 53.6185C114.995 53.8185 113.895 54.6186 113.495 56.0186C113.295 56.8186 113.695 57.7185 114.495 57.8185C115.395 58.0185 116.095 58.7185 116.995 59.1185C117.795 59.4185 118.595 59.5186 119.495 59.5186C120.895 59.5186 122.595 59.7185 123.795 58.8185C126.495 56.9185 124.495 53.5186 121.895 53.0186ZM121.795 56.5186C121.495 56.7186 120.095 56.5186 119.795 56.5186C119.395 56.5186 118.995 56.4185 118.595 56.3185C119.595 56.1185 120.395 55.9186 121.495 56.0186C121.695 56.0186 121.795 56.1185 121.895 56.3185C122.195 56.7185 121.995 56.4186 121.795 56.5186Z" stroke="#3A3A3A" stroke-width="10" mask="url(#path-5-inside-5_302_152)"/>
<mask id="path-6-inside-6_302_152" fill="white">
<path d="M120.195 59.7186C119.695 59.8186 119.295 60.2186 119.195 60.7186C119.195 60.8186 119.195 60.8186 119.195 60.9186C118.795 61.2186 118.495 61.8186 118.595 62.4186C118.995 63.8186 120.695 64.6186 121.995 64.9186C123.395 65.2186 125.495 65.4186 126.295 63.9186C128.095 60.8186 122.295 59.1186 120.195 59.7186Z"/>
</mask>
<path d="M120.195 59.7186C119.695 59.8186 119.295 60.2186 119.195 60.7186C119.195 60.8186 119.195 60.8186 119.195 60.9186C118.795 61.2186 118.495 61.8186 118.595 62.4186C118.995 63.8186 120.695 64.6186 121.995 64.9186C123.395 65.2186 125.495 65.4186 126.295 63.9186C128.095 60.8186 122.295 59.1186 120.195 59.7186Z" stroke="#3A3A3A" stroke-width="10" mask="url(#path-6-inside-6_302_152)"/>
<mask id="path-7-inside-7_302_152" fill="white">
<path d="M135.695 44.9186C134.495 43.6186 131.495 43.4186 129.795 43.4186C126.395 43.2186 123.095 44.2186 119.795 44.5186C116.195 44.9186 111.795 46.3186 111.395 50.5186C111.295 52.0186 112.995 52.3186 113.895 51.5186C114.395 51.6186 114.895 51.4186 115.195 50.7186C116.195 48.6186 121.395 50.5186 123.095 50.7186C125.995 51.1186 129.295 51.1186 132.095 50.3186C134.295 49.8186 137.895 47.4186 135.695 44.9186ZM131.295 47.5186C129.895 48.3186 126.895 48.0186 125.295 47.9186C124.095 47.8186 122.395 47.4186 120.595 47.1186C123.195 46.7186 125.795 46.5186 126.995 46.4186C127.795 46.4186 134.295 45.9186 131.295 47.5186Z"/>
</mask>
<path d="M135.695 44.9186C134.495 43.6186 131.495 43.4186 129.795 43.4186C126.395 43.2186 123.095 44.2186 119.795 44.5186C116.195 44.9186 111.795 46.3186 111.395 50.5186C111.295 52.0186 112.995 52.3186 113.895 51.5186C114.395 51.6186 114.895 51.4186 115.195 50.7186C116.195 48.6186 121.395 50.5186 123.095 50.7186C125.995 51.1186 129.295 51.1186 132.095 50.3186C134.295 49.8186 137.895 47.4186 135.695 44.9186ZM131.295 47.5186C129.895 48.3186 126.895 48.0186 125.295 47.9186C124.095 47.8186 122.395 47.4186 120.595 47.1186C123.195 46.7186 125.795 46.5186 126.995 46.4186C127.795 46.4186 134.295 45.9186 131.295 47.5186Z" stroke="#3A3A3A" stroke-width="10" mask="url(#path-7-inside-7_302_152)"/>
<mask id="path-8-inside-8_302_152" fill="white">
<path d="M242.495 118.019C242.195 118.019 241.995 118.019 241.795 118.119C241.595 118.019 241.295 118.019 240.995 118.019C238.395 118.519 235.295 120.919 235.995 123.919C236.695 126.419 239.695 126.719 241.895 126.619C244.095 126.419 247.295 125.419 247.795 122.919C248.495 119.619 245.195 118.019 242.495 118.019ZM244.495 122.619C243.895 123.319 242.395 123.519 241.595 123.619C240.995 123.619 239.395 123.819 238.995 123.319C238.195 122.219 241.195 121.119 241.795 121.019C241.895 121.019 241.895 121.019 241.995 120.919C242.195 121.019 242.295 121.019 242.495 121.019C243.395 121.019 245.595 121.419 244.495 122.619Z"/>
</mask>
<path d="M242.495 118.019C242.195 118.019 241.995 118.019 241.795 118.119C241.595 118.019 241.295 118.019 240.995 118.019C238.395 118.519 235.295 120.919 235.995 123.919C236.695 126.419 239.695 126.719 241.895 126.619C244.095 126.419 247.295 125.419 247.795 122.919C248.495 119.619 245.195 118.019 242.495 118.019ZM244.495 122.619C243.895 123.319 242.395 123.519 241.595 123.619C240.995 123.619 239.395 123.819 238.995 123.319C238.195 122.219 241.195 121.119 241.795 121.019C241.895 121.019 241.895 121.019 241.995 120.919C242.195 121.019 242.295 121.019 242.495 121.019C243.395 121.019 245.595 121.419 244.495 122.619Z" stroke="#3A3A3A" stroke-width="10" mask="url(#path-8-inside-8_302_152)"/>
<mask id="path-9-inside-9_302_152" fill="white">
<path d="M3.99466 11.0186C-2.10534 11.1186 -0.805349 21.8186 5.09465 21.6186C11.4947 21.3186 10.4947 9.71859 3.99466 11.0186ZM4.89465 18.5186C2.99465 18.4186 2.09466 13.9186 4.19466 13.9186C4.19466 13.9186 4.19465 13.9186 4.29465 13.9186C4.39465 13.9186 4.49465 13.9186 4.59465 13.9186C6.99465 13.3186 7.19465 18.7186 4.89465 18.5186Z"/>
</mask>
<path d="M3.99466 11.0186C-2.10534 11.1186 -0.805349 21.8186 5.09465 21.6186C11.4947 21.3186 10.4947 9.71859 3.99466 11.0186ZM4.89465 18.5186C2.99465 18.4186 2.09466 13.9186 4.19466 13.9186C4.19466 13.9186 4.19465 13.9186 4.29465 13.9186C4.39465 13.9186 4.49465 13.9186 4.59465 13.9186C6.99465 13.3186 7.19465 18.7186 4.89465 18.5186Z" stroke="#3A3A3A" stroke-width="10" mask="url(#path-9-inside-9_302_152)"/>
<mask id="path-10-inside-10_302_152" fill="white">
<path d="M10.6949 3.51856C10.2949 1.61856 8.39486 0.318559 6.59486 0.0185591C5.79486 -0.0814409 4.99486 0.218559 4.79486 1.01856C4.59486 1.11856 4.39487 1.21856 4.19487 1.31856C2.69487 2.51856 2.29486 4.51856 3.29486 6.21856C4.19486 7.71856 6.09486 8.51856 7.89486 8.01856C9.69486 7.51856 11.0949 5.51856 10.6949 3.51856ZM6.99487 5.21856C6.59487 5.41856 6.19486 5.21856 5.89486 4.91856C5.49486 4.41856 5.79486 4.01856 6.29486 3.61856C6.39486 3.51856 6.49486 3.31856 6.59486 3.21856C7.09486 3.41856 7.49487 3.61856 7.69487 4.11856C7.89487 4.51856 7.49487 5.01856 6.99487 5.21856Z"/>
</mask>
<path d="M10.6949 3.51856C10.2949 1.61856 8.39486 0.318559 6.59486 0.0185591C5.79486 -0.0814409 4.99486 0.218559 4.79486 1.01856C4.59486 1.11856 4.39487 1.21856 4.19487 1.31856C2.69487 2.51856 2.29486 4.51856 3.29486 6.21856C4.19486 7.71856 6.09486 8.51856 7.89486 8.01856C9.69486 7.51856 11.0949 5.51856 10.6949 3.51856ZM6.99487 5.21856C6.59487 5.41856 6.19486 5.21856 5.89486 4.91856C5.49486 4.41856 5.79486 4.01856 6.29486 3.61856C6.39486 3.51856 6.49486 3.31856 6.59486 3.21856C7.09486 3.41856 7.49487 3.61856 7.69487 4.11856C7.89487 4.51856 7.49487 5.01856 6.99487 5.21856Z" stroke="#3A3A3A" stroke-width="10" mask="url(#path-10-inside-10_302_152)"/>
</svg>
