<svg width="656" height="911" viewBox="0 0 656 911" fill="none" xmlns="http://www.w3.org/2000/svg">
<path d="M574.479 392.378L562.028 403.273L561.25 404.829L558.915 409.498L558.137 411.833L555.803 424.284L555.024 432.066L555.803 435.957V439.07L557.359 441.405L558.915 442.183L560.472 443.739L562.028 446.074L560.472 451.521L548.021 468.642L543.351 486.54L540.239 491.209L544.13 495.879L543.351 499.77L541.017 503.661L536.348 508.33L540.239 509.886L548.799 516.112L578.37 554.244L579.927 556.578L581.483 561.247L582.261 563.582L584.596 565.917L589.265 569.029L590.822 570.586L602.495 600.157L604.829 602.492L604.051 603.27L601.716 604.827L599.382 605.605L594.713 604.827L591.6 602.492L589.265 600.157L586.931 594.71L586.152 592.375L583.04 585.372L582.261 582.259L581.483 579.924L579.927 578.368L572.923 575.255L566.697 569.029L565.919 566.695L565.141 564.36L564.363 561.247L563.585 558.913L562.028 556.578L560.472 555.022V554.244L559.694 551.909V551.131L558.915 549.574H556.581H554.246L547.242 552.687H545.686L543.351 553.465L534.013 558.135L524.675 561.247V563.582V565.917L523.118 569.029L520.784 572.142L518.449 574.477L516.893 576.033L513.002 578.368L512.223 579.924L504.441 583.815L499.772 589.263L495.881 594.71L495.103 597.045L491.99 597.823H479.539L473.313 595.488L467.866 594.71L449.189 593.932L445.298 593.154L427.4 583.037L419.618 579.924L405.61 578.368L381.486 567.473L375.26 559.691L366.7 556.578L364.365 555.8H361.253L355.027 558.913H352.692L350.358 558.135L347.245 555.8L344.132 551.909H342.576L338.685 551.131L332.459 551.909L311.448 551.131L309.891 554.244L299.775 546.462L294.327 544.127H291.993H288.88L286.545 543.349L280.32 539.458L276.429 536.345L270.981 534.01L268.647 533.232V530.119L273.316 522.337L274.872 516.112L273.316 512.999L270.981 511.443L267.09 509.886L265.534 507.552V505.995L267.09 504.439V502.104L263.199 492.766V490.431L262.421 488.875L260.865 486.54L257.752 482.649L252.305 475.645L249.192 474.867L244.523 475.645L237.519 480.315L233.628 481.871H225.846L221.955 480.315L219.62 478.758L218.064 477.202L217.286 474.867L214.951 474.089L212.616 473.311L211.06 474.867L211.838 476.424L212.616 478.758L211.838 481.093L210.282 481.871L203.278 479.536L195.496 478.758L184.601 471.754L176.041 470.976L174.485 461.638L173.706 459.303L172.15 456.969V453.078V450.743L182.267 437.514L205.613 421.171L210.282 415.724L212.616 411.833L213.395 407.164L212.616 404.829L215.729 399.382L214.951 395.491L213.395 394.713L201.722 392.378L214.951 380.705L227.402 378.37L230.515 376.036L236.741 370.588L239.075 369.81H242.966L244.523 369.032L246.079 368.254L247.635 367.476L249.192 365.141V362.806L249.97 361.25H252.305L256.974 362.806L260.865 363.585L263.978 362.028H266.312L267.869 362.806L269.425 361.25L270.203 359.694L271.76 358.137H273.316L275.651 359.694L282.654 367.476L284.989 369.81L294.327 371.367L297.44 372.145L298.997 374.479L299.775 376.814L300.553 378.37L301.331 379.927L302.888 380.705L304.444 379.927L306 380.705L307.557 385.374L308.335 386.931L313.004 390.043L317.673 385.374L319.23 379.927V376.814L317.673 374.479L314.561 373.701H313.004L308.335 368.254L306 365.141L306.779 362.806L308.335 356.581L306.779 353.468L305.222 352.69L302.109 351.912L287.324 345.686L284.989 344.13L283.433 341.795L282.654 339.46L283.433 337.126L284.989 334.791L286.545 332.457L288.102 329.344L288.88 325.453V320.005L289.658 316.114L291.215 313.78H291.993H295.884L298.218 312.223L300.553 307.554L306 302.885L310.67 300.55L313.004 298.994H314.561L322.343 298.216L327.012 299.772V302.107L326.234 304.441L325.455 309.111L326.234 313.78L328.568 316.114L330.125 315.336L330.903 313.002V310.667V309.111L331.681 308.332V307.554L334.794 306.776L339.463 305.998L341.798 306.776L343.354 307.554L349.58 314.558L350.358 317.671L351.136 323.118L350.358 327.009L351.914 327.787L358.918 328.566L361.253 327.787L363.587 327.009L365.144 325.453L366.7 323.118L371.369 320.005L377.595 318.449L380.708 321.562L393.159 338.682L401.719 344.13L404.054 344.908H407.945L410.279 344.13L415.727 344.908L425.065 341.017L427.4 338.682L432.069 332.457L434.403 333.235L439.073 335.569L441.407 336.348L443.742 334.791H446.855L449.189 335.569L455.415 337.904L457.749 337.126L459.306 336.348L460.862 335.569L462.419 332.457L463.975 330.122L467.866 326.231L471.757 325.453L477.983 323.896L481.874 322.34L484.986 320.005L485.765 317.671V315.336L484.986 313.78L483.43 310.667L486.543 307.554L488.099 308.332L488.877 307.554H489.656L490.434 311.445L502.107 316.114L506.776 320.784L508.332 323.896L509.111 330.122L509.889 332.457V336.348L516.114 341.795L518.449 348.799L519.227 354.246L523.118 359.694L521.562 365.141L523.118 368.254L527.009 375.258L529.344 377.592L534.013 379.927H538.682L540.239 380.705L544.13 379.149L550.355 372.923L555.803 367.476L564.363 365.141H569.81L572.923 366.697L576.036 368.254L577.592 371.367V376.036L576.814 378.37L572.923 384.596L572.145 386.931V390.043L574.479 392.378Z" stroke="black" stroke-width="5" stroke-linecap="round" stroke-linejoin="round"/>
<path d="M574.48 392.381L572.146 390.047V386.934L572.924 384.599L576.815 378.374L577.593 376.039V371.37L576.037 368.257L572.924 366.701L569.811 365.144H564.364L555.804 367.479L550.356 372.926L544.131 379.152L540.24 380.708L538.683 379.93H534.014L529.345 377.596L527.01 375.261L523.119 368.257L521.563 365.144L523.119 359.697L519.228 354.25L518.45 348.802L516.115 341.798L509.89 336.351V332.46L509.112 330.125L508.333 323.9L506.777 320.787L502.108 316.118L490.435 311.449L489.657 307.558H488.878L488.1 308.336L486.544 307.558L483.431 310.67L484.987 313.783L485.766 315.34V317.674L484.987 320.009L481.875 322.343L477.984 323.9L471.758 325.456L467.867 326.234L463.976 330.125L462.42 332.46L460.863 335.573L459.307 336.351L457.75 337.129L455.416 337.907L449.19 335.573L446.856 334.795H443.743L441.408 336.351L439.074 335.573L434.404 333.238L432.07 332.46L427.401 338.686L425.066 341.02L415.728 344.911L410.28 344.133L407.946 344.911H404.055L401.72 344.133L393.16 338.686L380.709 321.565L377.596 318.452L371.37 320.009L366.701 323.122L365.145 325.456L363.588 327.013L361.254 327.791L358.919 328.569L351.915 327.791L350.359 327.013L351.137 323.122L350.359 317.674L349.581 314.561L343.355 307.558L341.799 306.779L339.464 306.001L334.795 306.779L331.682 307.558V308.336L330.904 309.114V310.67V313.005L330.126 315.34L328.569 316.118L326.235 313.783L325.456 309.114L326.235 304.445L327.013 302.11V299.776L322.344 298.219L314.562 298.997H313.005L310.671 300.554L306.001 302.888L300.554 307.558L288.103 303.667L284.212 300.554L283.434 297.441L282.655 295.106L280.321 291.215L277.208 288.103L275.652 285.768L274.873 282.655L274.095 278.764L270.982 276.43L268.648 274.095L261.644 271.76V265.535L270.204 252.305L274.095 248.414L289.659 237.52L306.001 221.956L313.005 216.508L316.118 208.726L319.231 204.835L322.344 204.057L327.791 205.613L331.682 204.057L334.017 202.501L334.795 200.944L336.351 198.61L342.577 190.828L347.246 184.602L348.024 182.267L348.802 176.82L351.137 175.264L364.366 165.925L370.592 156.587L369.814 155.03L368.257 151.918L364.366 148.805L352.693 137.132L358.919 121.568L365.145 112.229L369.814 107.56L373.705 106.004L379.152 107.56L390.825 113.786L394.716 117.677V118.455L396.273 117.677L397.829 116.899L403.276 109.895L404.833 108.338L411.058 105.226L414.949 100.556L418.84 95.1089L423.51 89.6615L428.957 87.3269L431.292 84.9923L433.626 79.5449L437.517 73.3193L442.186 70.2065H448.412L453.081 73.3193L457.75 74.0975L463.976 68.6502L467.867 65.5373L472.536 61.6463L477.984 60.0899L481.096 60.8682L483.431 66.3155L492.769 91.2179L497.439 95.8872L505.999 107.56L510.668 112.229L520.006 116.899L522.341 120.011L525.454 127.793L529.345 131.684L535.57 134.797L547.243 137.91L549.578 141.023V149.583L548.022 157.365L545.687 162.812L544.131 168.26V176.042L545.687 183.824L548.022 187.715L553.469 192.384L567.477 209.504L563.586 216.508L562.807 223.512L565.142 231.294L569.033 236.741L576.037 240.632L583.819 242.967L590.823 246.08L593.935 253.084L593.157 256.975L590.044 263.978L590.823 267.091L593.935 269.426L597.826 271.76L601.717 272.539L605.608 270.982L612.612 267.091L619.616 266.313L627.398 268.648L633.624 272.539L638.293 277.208L642.184 283.433L643.74 291.215L642.184 297.441L645.297 299.776V302.888L643.74 306.779L641.406 309.892L632.067 328.569L625.063 337.129L619.616 342.577L623.507 349.58L621.951 355.028V360.475L619.616 362.032L616.503 365.144L612.612 368.257L608.721 370.592L595.492 373.705L592.379 376.039L590.823 379.152L586.932 383.821L582.262 387.712L578.371 389.269L574.48 392.381Z" stroke="black" stroke-width="5" stroke-linecap="round" stroke-linejoin="round"/>
<path d="M309.889 554.247L311.446 551.134L332.457 551.912L338.683 551.134L342.574 551.912H344.13L347.243 555.803L350.356 558.138L352.69 558.916H355.025L361.251 555.803H364.363L366.698 556.581L375.258 559.694L381.484 567.476L405.608 578.371L419.616 579.927L427.398 583.04L445.296 593.157L449.187 593.935L467.864 594.713L473.311 595.491L479.537 597.826H491.988L495.101 597.048L495.879 594.713L499.77 589.266L504.439 583.818L512.221 579.927L513 578.371L516.891 576.036L518.447 574.48L520.782 572.145L523.116 569.032L524.673 565.92V563.585V561.25L534.011 558.138L543.349 553.468L545.684 552.69H547.24L554.244 549.577H556.579H558.913L559.692 551.134V551.912L560.47 554.247V555.025L562.026 556.581L563.583 558.916L564.361 561.25L565.139 564.363L565.917 566.698L566.695 569.032L572.921 575.258L579.925 578.371L581.481 579.927L582.259 582.262L583.038 585.375L586.15 592.378L586.929 594.713L589.263 600.16L591.598 602.495L594.711 604.83L599.38 605.608L601.714 604.83L604.049 603.273L604.827 602.495L608.718 606.386H613.387L620.391 604.83L627.395 601.717L630.508 597.048H632.064L632.842 597.826L639.846 595.491L648.406 594.713L652.297 597.048L653.076 597.826L649.963 607.942L647.628 613.39L643.737 625.841L638.29 635.958L635.955 646.852L633.621 651.522L631.286 660.082L624.282 660.86L607.94 654.634L603.271 653.856L600.936 656.969L597.823 663.973L594.711 667.864L593.154 669.42L589.263 670.977L585.372 672.533L582.259 671.755L578.368 670.977H575.256L572.143 672.533L562.804 674.868L561.248 676.424V679.537L562.026 682.65V686.541L560.47 692.766L554.244 709.887L551.131 721.56L543.349 735.567L517.669 757.357L513 765.139L509.109 775.255L506.774 792.376L505.218 797.823L502.883 800.936L495.879 808.718L492.766 811.053L493.545 812.609V814.944L492.766 816.5V818.056L489.654 821.169L488.875 822.726V826.617V827.395H490.432L491.988 832.064V834.399L492.766 836.733L485.763 838.29H477.981L471.755 841.402L466.308 846.85L463.195 848.406L460.86 849.184L459.304 848.406L454.635 847.628L453.078 846.85H438.292L416.503 856.188L411.055 859.301L409.499 860.857L407.943 861.636H406.386L400.939 864.748L398.604 865.527L397.048 866.305L396.27 868.639L392.379 869.418L387.709 872.53L386.931 874.865L385.375 877.2L381.484 878.756L373.702 880.312H369.811L361.251 881.869L357.36 884.203L355.803 886.538V888.873L356.581 890.429L358.138 893.542V895.098L356.581 895.876L346.465 901.324L340.239 906.771L336.348 908.328H333.235L322.341 907.549H316.893L307.555 904.437L288.1 889.651L283.431 887.316L280.318 883.425L279.54 881.869L278.761 876.421L276.427 872.53L269.423 870.196L264.754 870.974L262.419 872.53L259.306 871.752L256.194 872.53L249.968 873.309L239.073 877.2L238.295 878.756L235.96 881.091V883.425L234.404 886.538L229.735 888.873L224.287 891.207L212.614 888.873L207.945 887.316L197.05 881.091L193.938 880.312L183.043 881.869L180.708 883.425L179.152 884.982L177.595 886.538L176.039 888.094L173.704 887.316L172.148 886.538L164.366 882.647L152.693 881.869L151.137 881.091L148.024 878.756L145.689 875.643L141.02 871.752L137.129 870.974L131.682 867.083L127.791 864.748L129.347 860.079L130.903 850.741L131.682 834.399L130.125 825.838L127.012 820.391L123.121 815.722V811.053L126.234 795.489L127.791 785.372L130.125 776.812L134.016 774.477L141.798 772.921L143.355 764.361V763.582L141.02 765.917L134.794 767.473H127.791L125.456 761.248L127.791 743.349L130.125 730.12L132.46 733.233L134.016 735.567L135.573 736.345H137.907L139.464 735.567L141.798 734.011L144.133 733.233L148.802 734.789L151.137 737.902L151.915 739.458L158.919 748.797L162.031 753.466L162.81 755.022H164.366L165.922 753.466L166.701 751.131L168.257 750.353L170.592 751.131L172.926 751.909L175.261 754.244L179.93 755.8L183.043 756.579L187.712 754.244L189.268 751.909L190.047 749.575V746.462L193.159 738.68L193.938 736.345L199.385 730.898L200.163 728.563L200.941 725.451L204.054 723.116L208.723 720.781L233.626 716.112L246.077 718.447H253.859H254.637L263.197 723.116L267.088 712.999L268.645 710.665L271.758 701.326L273.314 684.984V674.868L270.201 667.086L268.645 663.973L264.754 660.86H260.863L257.75 660.082L254.637 657.747L249.968 653.078L244.521 648.409L243.742 645.296L242.964 642.961V641.405L243.742 639.07V636.736L244.521 634.401L245.299 632.067L246.855 628.954H249.19L250.746 629.732H252.303H253.859L254.637 628.176L255.415 627.397L256.194 623.506L256.972 621.95V620.394V618.837L257.75 617.281L260.085 616.503L261.641 614.946L263.197 614.168L266.31 615.724L268.645 617.281L270.201 618.059L272.536 616.503L274.092 610.277L274.87 607.164L275.649 605.608L277.983 604.051H288.1L289.656 600.939L290.434 597.048L292.769 596.269L302.886 593.935L307.555 591.6L317.671 588.487L319.228 584.596V582.262V578.371L316.893 569.811L309.889 554.247Z" stroke="black" stroke-width="5" stroke-linecap="round" stroke-linejoin="round"/>
<path d="M201.72 392.381L213.393 394.716L214.949 395.494L215.727 399.385L212.615 404.833L213.393 407.167L212.615 411.836L210.28 415.727L205.611 421.175L182.265 437.517L172.148 450.746V453.081V456.972L173.704 459.307L174.483 461.641L176.039 470.98L184.599 471.758L195.494 478.762L203.276 479.54L210.28 481.874L211.836 481.096L212.615 478.762L211.836 476.427L211.058 474.871L212.615 473.314L214.949 474.092L217.284 474.871L218.062 477.205L219.618 478.762L221.953 480.318L225.844 481.874H233.626L237.517 480.318L244.521 475.649L249.19 474.871L252.303 475.649L257.75 482.653L260.863 486.544L262.419 488.878L263.198 490.435V492.769L267.089 502.108V504.442L265.533 505.999V507.555L267.089 509.89L270.979 511.446L273.314 513.002L274.871 516.115L273.314 522.341L268.645 530.123V533.236L270.979 534.014L276.427 536.348L280.318 539.461L286.544 543.352L288.878 544.13H291.991H294.326L299.773 546.465L309.889 554.247L316.893 569.811L319.228 578.371V582.262V584.597L317.672 588.488L307.555 591.601L302.886 593.935L292.77 596.27L290.435 597.048L289.656 600.939L288.1 604.052H277.983L275.649 605.608L274.871 607.165L274.092 610.277L272.536 616.503L270.202 618.059L268.645 617.281L266.31 615.725L263.198 614.168L261.641 614.947L260.085 616.503L257.75 617.281L256.972 618.838V620.394V621.95L256.194 623.507L255.416 627.398L254.637 628.176L253.859 629.732H252.303H250.746L249.19 628.954H246.855L245.299 632.067L244.521 634.402L243.743 636.736V639.071L242.964 641.405V642.962L243.743 645.296L244.521 648.409L249.968 653.078L254.637 657.748L257.75 660.082L260.863 660.86H264.754L268.645 663.973L270.202 667.086L273.314 674.868V684.985L271.758 701.327L268.645 710.665L267.089 713L263.198 723.116L254.637 718.447H253.859H246.077L233.626 716.113L208.723 720.782L204.054 723.116L200.941 725.451L200.163 728.564L199.385 730.898L193.938 736.346L193.16 738.68L190.047 746.462V749.575L189.268 751.91L187.712 754.244L183.043 756.579L179.93 755.801L175.261 754.244L172.926 751.91L170.592 751.132L168.257 750.353L166.701 751.132L165.923 753.466L164.366 755.023H162.81L162.031 753.466L158.919 748.797L151.915 739.459L151.137 737.902L148.802 734.789L144.133 733.233L141.798 734.011L139.464 735.568L137.907 736.346H135.573L134.016 735.568L132.46 733.233L130.125 730.12L130.904 723.895V712.222L128.569 703.661L124.678 694.323L115.339 692.767L103.666 685.763L104.445 682.65L106.779 681.094L109.114 680.315L111.448 677.981L125.456 646.075L130.904 620.394L137.129 601.717L136.351 582.262L134.016 559.694L131.682 539.461L124.678 525.454L116.896 517.672L108.336 506.777L98.2195 498.995L89.659 495.882L94.3285 491.213L100.554 493.547L111.448 502.886L123.9 507.555L130.125 510.668L130.904 515.337H142.576L170.592 522.341L184.599 518.45L176.039 517.672L169.035 516.115L148.024 505.999L145.689 502.886L144.133 498.217L143.355 493.547L144.133 488.878L145.689 484.987L148.024 483.431V481.096L144.133 479.54L141.02 474.871L140.242 470.201L141.798 466.31L137.907 465.532L132.46 476.427L126.234 478.762V481.096L133.238 481.874L135.573 486.544V492.769L133.238 495.882L127.012 495.104L120.787 493.547L111.448 488.1L100.554 484.209L86.5465 487.322L74.095 502.108L76.4295 503.664L60.0875 509.89L32.8505 513.781L26.625 516.115L22.734 519.228L17.2865 520.006L10.2825 518.45H8.72647L7.94798 516.115V513.781L8.72647 511.446L9.50448 510.668L11.839 507.555L20.3995 498.995L21.9555 487.322V470.201L14.952 453.859L6.39149 439.852L2.50049 428.957L7.94798 426.622L21.1775 424.288L32.8505 423.509L39.076 427.4L41.4105 431.291H43.7455L41.4105 424.288L46.08 421.953L54.64 419.618L59.3095 418.84V416.506L63.2005 411.836L67.8695 407.167L75.6515 400.942L85.768 392.381L87.3245 391.603L88.881 390.047L89.659 389.269L92.772 388.49H95.8845L95.1065 393.16L96.663 398.607L98.9975 400.942L101.332 401.72H105.223L110.67 399.385L113.783 397.829L118.452 396.272L121.565 397.051L123.9 397.829L126.234 401.72L134.016 404.054H136.351L141.02 402.498L144.911 397.051L145.689 394.716L149.58 384.599L157.362 368.257L159.697 367.479L161.253 368.257L162.81 369.814L166.701 372.148L174.483 375.261L179.93 371.37L184.599 369.814L186.156 370.592V372.148L185.378 374.483V377.596V379.93L184.599 383.043L185.378 386.156L188.49 390.825L191.603 391.603L194.716 390.825L201.72 392.381Z" stroke="black" stroke-width="5" stroke-linecap="round" stroke-linejoin="round"/>
<path d="M300.552 307.555L298.217 312.224L295.883 313.78H291.992H291.214L289.657 316.115L288.879 320.006V325.453L288.101 329.344L286.544 332.457L284.988 334.792L283.432 337.126L282.653 339.461L283.432 341.796L284.988 344.13L287.323 345.687L302.108 351.912L305.221 352.69L306.778 353.469L308.334 356.581L306.778 362.807L305.999 365.142L308.334 368.254L313.003 373.702H314.56L317.672 374.48L319.229 376.815V379.927L317.672 385.375L313.003 390.044L308.334 386.931L307.556 385.375L305.999 380.706L304.443 379.927L302.887 380.706L301.33 379.927L300.552 378.371L299.774 376.815L298.996 374.48L297.439 372.145L294.326 371.367L284.988 369.811L282.653 367.476L275.65 359.694L273.315 358.138H271.759L270.202 359.694L269.424 361.251L267.868 362.807L266.311 362.029H263.977L260.864 363.585L256.973 362.807L252.304 361.251H249.969L249.191 362.807V365.142L247.634 367.476L246.078 368.254L244.522 369.033L242.965 369.811H239.074L236.74 370.589L230.514 376.036L227.401 378.371L214.95 380.706L201.721 392.379L194.717 390.822L191.604 391.6L188.491 390.822L185.378 386.153L184.6 383.04L185.378 379.927V377.593V374.48L186.157 372.145V370.589L184.6 369.811L179.931 371.367L174.484 375.258L166.702 372.145L162.811 369.811L161.254 368.254L159.698 367.476L157.363 368.254L149.581 384.597L145.69 394.713L144.912 397.048L141.021 402.495L136.352 404.052H134.017L126.235 401.717L123.901 397.826L121.566 397.048L118.453 396.27L113.784 397.826L110.671 399.382L105.224 401.717H101.333L98.9984 400.939L96.6639 398.604L95.1074 393.157L95.8854 388.488L93.5509 379.927L91.9944 377.593L91.2164 376.036L86.5474 369.811V365.92L90.4384 361.251L92.7729 358.138L96.6639 350.356L106.002 323.897L109.115 317.671L112.228 313.78L113.006 310.668L118.453 302.107L116.119 299.773L114.562 296.66L125.457 293.547L130.904 286.543L132.461 285.765L133.239 284.209V282.652L137.13 277.983L140.243 272.536L132.461 277.983L130.126 273.314L129.348 270.979L127.792 270.201L126.235 268.645L120.01 266.31L118.453 264.754L109.893 256.972L109.115 254.637L106.78 249.968L105.224 248.412L102.889 247.633L101.333 245.299V243.742L105.224 240.63L109.115 239.073L116.897 239.851L121.566 238.295L125.457 235.182L111.449 221.175L109.115 215.727L97.4419 218.84L77.9869 213.393L78.7654 207.945L75.6524 199.385L74.8744 187.712L73.3179 180.708L74.0959 176.817L80.3214 165.922L85.7689 164.366L88.1034 162.81L90.4384 159.697L99.7764 140.242L103.667 136.351L112.228 133.238L130.126 131.682L144.134 133.238L148.025 130.125L148.803 127.791V126.234V125.456V124.678L146.468 120.787V118.452V115.339L148.025 113.783H149.581L151.916 115.339H155.029L157.363 114.561L164.367 105.223L165.923 102.11L162.811 91.9934V85.7678L159.698 74.0948L165.923 69.4256L169.036 67.8692L170.593 65.5346L172.927 63.9782L174.484 60.0872L172.927 54.6398L170.593 51.5269L168.258 49.9706L166.702 47.6359L165.923 45.3014V40.6322L165.145 34.4066V31.2938L166.702 28.1809L168.258 25.8464L180.709 19.6208L186.157 21.1772L189.269 20.3989L194.717 18.0644L208.724 7.9478L212.615 6.39143H214.95L218.841 3.27856L222.732 2.50043L226.623 17.2862L227.401 21.9554L229.736 30.5156V33.6284L230.514 35.1848L231.292 36.7412L235.961 35.1848L247.634 31.2938L251.525 30.5156L257.751 27.4028L263.198 28.1809L264.755 27.4028L263.198 20.3989V17.2862V15.7298L265.533 16.5079L277.206 18.0644L278.762 23.5118L281.875 25.0682L285.766 26.6246L288.879 28.1809L290.435 29.7374L291.214 32.0719L291.992 33.6284V35.9629L291.214 37.5194L291.992 43.7449L290.435 47.6359V54.6398L291.214 67.8692L293.548 72.5384L309.112 78.7639L316.894 83.4332H322.342L332.458 82.6549L338.684 80.3204V78.7639L337.906 76.4294L336.349 70.2038L335.571 66.3128L337.127 61.6436L339.462 57.7526L342.575 39.0758L344.131 36.7412L349.579 35.1848L358.917 38.2976L365.921 39.0758L367.477 40.6322L368.255 42.9668L369.034 45.3014V48.4142V50.7488L369.812 56.1962L369.034 61.6436L369.812 64.7564L372.146 66.3128L375.259 67.0909H378.372L383.819 69.4256L388.489 72.5384L393.158 76.4294L399.383 82.6549L404.831 91.9934L406.387 95.1062L408.722 101.332L411.056 105.223L404.831 108.336L403.274 109.892L397.827 116.896L396.271 117.674L394.714 118.452V117.674L390.823 113.783L379.15 107.557L373.703 106.001L369.812 107.557L365.143 112.227L358.917 121.565L352.691 137.129L364.364 148.802L368.255 151.915L369.812 155.028L370.59 156.584L364.364 165.922L351.135 175.261L348.8 176.817L348.022 182.265L347.244 184.599L342.575 190.825L336.349 198.607L334.793 200.941L334.015 202.498L331.68 204.054L327.789 205.611L322.342 204.054L319.229 204.832L316.116 208.723L313.003 216.505L305.999 221.953L289.657 237.517L274.093 248.412L270.202 252.303L261.642 265.532V271.758L268.646 274.092L270.98 276.427L274.093 278.761L274.871 282.652L275.65 285.765L277.206 288.1L280.319 291.213L282.653 295.104L283.432 297.438L284.21 300.551L288.101 303.664L300.552 307.555Z" stroke="black" stroke-width="5" stroke-linecap="round" stroke-linejoin="round"/>
</svg>
