<svg width="457" height="205" viewBox="0 0 457 205" fill="none" xmlns="http://www.w3.org/2000/svg">
<path d="M421.172 2.50012L423.507 6.39112L425.841 8.72575L430.51 12.6167L432.067 14.9513L434.401 21.1769L435.958 29.7371L436.736 37.5191L435.958 41.4101L440.627 53.0831L442.962 81.0983L446.074 92.7713L443.74 98.2187L445.296 106.001L449.187 121.565L449.965 123.121L450.744 124.677L451.522 126.234L453.856 127.012V128.568L451.522 131.681L446.853 127.79L440.627 126.234H434.401L428.176 127.012L421.95 129.347L410.277 137.129L405.608 138.685L389.266 149.58L386.931 152.693L344.13 181.486L335.57 190.046H330.901L327.01 188.49L320.784 186.933H303.664L298.216 184.599L295.882 188.49H292.769L289.656 186.155L286.543 184.599L289.656 189.268L290.434 191.603L291.213 194.715L284.209 185.377L274.092 176.817L253.859 165.144L242.964 162.809L233.626 158.918H224.287L201.719 162.031L191.603 158.918L181.486 155.027L172.926 158.918L160.475 160.475L148.024 155.805V156.584L132.46 148.023L120.787 145.689L107.557 147.245L103.666 148.023L99.775 151.136L90.4365 160.475H73.3165L70.2035 161.253L62.4215 165.922L59.3085 167.478L54.6395 168.257L48.414 169.813L42.1885 175.26L36.741 172.926L31.2935 178.373L28.959 179.93L25.846 181.486L20.3985 186.155L17.286 186.933L13.395 185.377L10.282 182.264L7.16949 180.708L2.5 182.264L4.83451 172.148L6.391 167.478L7.9475 165.144L18.8425 148.023L22.7335 137.907L26.6245 129.347L24.2895 119.23L28.959 114.561L35.9625 107.557L39.8535 91.993L37.519 85.7675L35.1845 80.3201L39.8535 70.9817L47.6355 62.4215L49.192 53.8613L53.8615 41.4101L56.196 30.5153L60.087 32.8499L65.5345 36.7409L69.4255 37.5191L74.0945 41.4101L76.429 44.5229L79.542 46.8575L81.0985 47.6357L92.7715 48.4139L100.553 52.3049L102.11 53.0831L104.444 53.8613L106.001 52.3049L107.557 50.7485L109.114 49.1921L111.448 47.6357L122.343 46.0793L125.456 46.8575L136.351 53.0831L141.02 54.6395L152.693 56.9741L158.14 54.6395L162.809 52.3049L164.366 49.1921V46.8575L166.7 44.5229L167.479 42.9665L178.373 39.0755L184.599 38.2973L187.712 37.5191L190.825 38.2973L193.159 36.7409L197.828 35.9627L204.832 38.2973L207.167 42.1883L207.945 47.6357L208.723 49.1921L211.836 53.0831L216.505 55.4177L235.96 70.2035L245.299 73.3163H250.746L261.641 74.0945H264.754L268.645 72.5381L274.87 67.0907L284.987 61.6433L286.543 60.8651V59.3087L284.987 56.1959L284.209 54.6395V52.3049L285.765 49.9703L289.656 47.6357L298.216 46.0793H302.107L309.889 44.5229L313.78 42.9665L315.337 40.6319L316.115 38.2973L320.784 35.1845L324.675 34.4063L325.453 32.0717L327.01 31.2935L329.344 30.5153L334.792 27.4025H336.348L337.905 26.6243L339.461 25.0679L344.908 21.9551L366.698 12.6167H381.484L383.04 13.3949L387.709 14.1731L389.266 14.9513L391.6 14.1731L394.713 12.6167L400.161 7.16925L406.386 4.0565H414.168L421.172 2.50012ZM296.66 197.05L311.446 198.606L316.893 196.272L323.897 189.268L324.675 190.824V191.603L325.453 194.715L323.897 195.494V197.05L318.45 200.163L311.446 201.719H303.664L296.66 199.385V197.05Z" stroke="black" stroke-width="5" stroke-linecap="round" stroke-linejoin="round"/>
</svg>
