<svg width="743" height="742" viewBox="0 0 743 742" fill="none" xmlns="http://www.w3.org/2000/svg">
<path d="M525.449 572.919L522.336 572.14L516.889 573.697L512.22 577.588L508.329 580.701L502.103 586.148L497.434 585.37L492.765 582.257H486.539L481.87 585.37L477.979 591.595L475.644 597.043L473.31 599.377L467.862 601.712L463.193 607.159L459.302 612.607L455.411 617.276L453.076 613.385L450.742 607.159L449.185 604.047L443.738 594.708L437.512 588.483L432.843 584.592L428.174 581.479L422.727 579.144H419.614L416.501 578.366L414.166 576.81L413.388 573.697L414.166 568.249L413.388 562.802V560.467V557.355L412.61 555.02L411.832 552.685L410.275 551.129L403.272 550.351L393.933 547.238L388.486 548.794L386.929 551.129L383.817 569.806L381.482 573.697L379.926 578.366L380.704 582.257L382.26 588.483L383.038 590.817V592.374L376.813 594.708L366.696 595.486H361.249L353.467 590.817L337.903 584.592L335.568 579.922L334.79 566.693V559.689L336.346 555.798L335.568 549.573L336.346 548.016V545.682L335.568 544.125L334.79 541.791L333.234 540.234L330.121 538.678L326.23 537.121L323.117 535.565L321.561 530.118L320.004 525.448V523.892L322.339 520.779L323.895 519.223V516.888V515.332L325.452 512.997L327.008 511.441L339.459 507.55L342.572 508.328L344.128 506.772L346.463 503.659L348.798 500.546L351.132 498.99H353.467L356.58 496.655L358.914 494.32L364.362 483.426L369.031 478.756L369.809 476.422L372.144 474.865H372.922L376.813 474.087L379.926 470.196L386.151 468.64H390.82L392.377 467.083V465.527L393.155 463.192H394.711L398.602 462.414L400.159 460.858L401.715 460.08L404.05 459.301L405.606 460.08L407.941 460.858H408.719L410.275 460.08L414.166 454.632L415.723 453.076H418.057H423.505L426.618 450.741V449.185L425.839 443.737L426.618 440.625L429.73 437.512L436.734 433.621L440.625 432.843H443.738L446.851 433.621L449.185 435.177L454.633 439.068L455.411 432.064L454.633 425.839L456.189 423.504L457.746 422.726L459.302 423.504V424.282L460.858 425.839L462.415 426.617L465.528 425.839L470.975 421.948L473.31 419.613L474.866 417.279V415.722V413.388L474.088 411.053L473.31 407.162L465.528 401.715L460.858 395.489L457.746 393.154L456.189 390.82L454.633 386.151L455.411 383.038L461.637 369.03L467.084 366.696L471.753 365.917L475.644 364.361L485.761 356.579L493.543 353.466L500.547 348.797L506.772 341.793L512.22 334.011L519.223 336.346L529.34 334.789L531.675 332.455L534.009 330.12L535.566 324.673L536.344 322.338L540.235 315.334L554.242 302.105L565.137 310.665L572.141 313H575.254L584.592 309.887L590.04 302.883H592.374L595.487 302.105L600.156 301.327H602.491L605.604 302.883L603.269 324.673L600.156 334.789L597.822 337.902L595.487 340.237L592.374 344.128L591.596 347.241L592.374 348.797L593.152 350.353L594.709 351.132L597.043 351.91L599.378 352.688L605.604 354.244L612.607 355.801L625.837 351.132H639.066L642.957 349.575L644.514 348.019L645.292 344.906L646.848 341.793L648.405 339.459L651.517 336.346L653.074 337.124L654.63 338.68L656.187 341.793L658.521 346.462L660.856 348.797L667.86 350.353L674.085 349.575L678.754 348.797H681.089H683.424L690.427 352.688L694.318 355.801L697.431 358.914L698.209 360.47H698.988L695.097 361.248L682.645 369.03L677.976 371.365L675.642 374.478L672.529 383.038L670.194 387.707L672.529 393.154L674.863 405.606L677.976 410.275L681.089 411.831L688.871 412.609L691.984 414.166L695.097 416.5L698.988 422.726L705.213 430.508L716.108 450.741L711.439 459.301L709.882 463.192L710.661 467.083L709.882 470.196L707.548 479.535L706.77 481.091L704.435 482.647L703.657 484.982V486.538L704.435 490.429V491.986L703.657 495.877V501.324L702.879 505.215L695.875 516.11L692.762 517.666L686.536 520.001L684.202 522.336L682.645 527.005V530.896L684.202 534.009V537.121L683.424 541.012L679.533 547.238L678.754 550.351V553.464L679.533 556.576V558.911L676.42 566.693L672.529 568.249L630.506 573.697H621.946L615.72 569.806L611.051 571.362L599.378 570.584L594.709 572.14L590.04 573.697L586.149 575.253L525.449 572.14V572.919Z" stroke="black" stroke-width="5" stroke-linecap="round" stroke-linejoin="round"/>
<path d="M698.989 360.474H698.211L697.433 358.917L694.32 355.804L690.429 352.692L683.425 348.801H681.09H678.756L674.087 349.579L667.861 350.357L660.857 348.801L658.523 346.466L656.188 341.797L654.632 338.684L653.075 337.128L651.519 336.349L648.406 339.462L646.85 341.797L645.293 344.91L644.515 348.022L642.959 349.579L639.068 351.135H625.838L612.609 355.804L605.605 354.248L599.379 352.692L597.045 351.913L594.71 351.135L593.154 350.357L592.376 348.801L591.597 347.244L592.376 344.131L595.488 340.24L597.823 337.906L600.158 334.793L603.27 324.676L605.605 302.887L602.492 301.33H600.158L595.488 302.109L592.376 302.887H590.041L584.594 309.891L575.255 313.003H572.142L565.139 310.669L554.244 302.109L540.236 315.338L536.345 322.342L535.567 324.676L534.011 330.124L531.676 332.458L529.341 334.793L519.225 336.349L512.221 334.015L506.774 341.797L500.548 348.801L493.544 353.47L485.762 356.583L475.646 364.365L471.755 365.921L467.085 366.699L461.638 369.034L457.747 362.03L449.965 358.139L453.078 350.357L454.634 344.91L456.191 341.019L458.525 337.906L465.529 334.015V330.902L464.751 329.346L460.86 325.455L459.303 322.342L456.969 309.112V306L455.412 304.443L450.743 302.887L448.409 301.33L446.074 298.218L446.852 295.105L449.187 293.548L451.521 292.77L453.856 291.214L455.412 288.879L456.191 285.766V282.654L454.634 280.319L452.3 278.763L449.965 270.202L452.3 267.868L460.86 266.311L463.973 265.533L471.755 260.086L479.537 256.973L488.875 250.747L500.548 246.078L519.225 242.965L518.447 235.183L524.672 214.95L528.563 210.281L530.12 200.943L525.45 193.939L519.225 190.048L516.112 184.6L519.225 180.709L520.003 178.375V176.04L519.225 173.706L517.668 171.371L510.665 165.145L508.33 162.811L507.552 159.698L509.108 157.363L512.221 152.694L515.334 147.247L518.447 137.13L519.225 135.574L521.559 133.239L524.672 131.683H531.676L534.789 133.239L538.68 136.352L548.796 146.469L550.353 148.025L551.909 150.36L556.578 151.138L559.691 146.469L565.917 131.683V127.792L565.139 123.901L564.36 121.566L562.804 114.562L566.695 112.228L576.812 115.341L586.15 106.78L588.485 100.555V95.8857V93.5511L586.928 91.2164L584.594 90.4382L581.481 88.1037L579.146 86.5472L577.59 81.8781L576.812 79.5434L577.59 77.9871L584.594 78.7652L588.485 76.4307L586.928 66.3141L587.706 59.3102L590.041 48.4154L597.823 23.5131L619.613 21.9567L628.951 24.2912H634.398L636.733 20.4002L647.628 12.6182L650.741 11.8401L648.406 19.6221L646.85 21.9567L647.628 23.5131L649.962 25.0694L651.519 25.8477L653.853 26.6259L656.188 27.4041V30.5169L654.632 33.6297V36.7424L656.188 42.1899L657.744 46.8591L660.857 50.7501L685.76 63.9794H698.211L702.88 65.5359L701.324 72.5397L698.211 77.2089L698.989 81.8781L702.102 86.5472L710.662 95.8857L714.553 102.889L720.779 117.675L723.113 125.457L725.448 128.57L729.339 130.126L732.452 131.683L734.008 137.13L733.23 141.799L728.561 143.356L727.782 152.694L728.561 155.029L729.339 158.92V161.254L728.561 162.811L727.782 166.702V173.706L728.561 179.153L731.673 191.604L734.008 204.055L734.786 210.281V214.95L732.452 221.176L726.226 233.627L724.67 239.074L725.448 245.3L727.782 249.191L730.895 253.082L734.008 257.751L735.564 263.977L734.786 268.646L727.782 277.984L722.335 291.214L724.67 302.887L730.895 313.782L740.234 323.12L735.564 331.68L733.23 334.015L720.779 343.353L719.222 345.688L717.666 348.022V351.135V354.248L716.888 356.583L711.44 360.474H705.993L700.545 359.695L698.989 360.474Z" stroke="black" stroke-width="5" stroke-linecap="round" stroke-linejoin="round"/>
<path d="M364.363 483.428L358.916 494.323L356.581 496.657L353.468 498.992H351.134L348.799 500.548L346.464 503.661L344.13 506.774L342.573 508.33L339.461 507.552L327.009 511.443L325.453 513L323.897 515.334V516.891V519.225L322.34 520.782L320.006 523.894V525.451L321.562 530.12L309.889 528.564L307.554 527.785V529.342V532.455L309.111 539.458L307.554 540.237L302.107 539.458L295.881 542.571L291.99 543.349L280.317 547.24L275.648 548.797L274.87 547.24L274.092 545.684V542.571L271.757 534.011L270.979 529.342L267.088 514.556L263.197 515.334L259.306 518.447H256.971L253.08 520.003L239.073 530.12L233.625 532.455L230.513 533.233L225.065 531.676L212.614 537.902L211.058 540.237L209.501 543.349V546.462L210.279 552.688V557.357L211.058 559.692L212.614 562.026L214.949 563.583L217.283 566.695L218.84 572.143L217.283 576.034L214.949 577.59L213.392 579.925L210.279 581.481L204.054 586.15L207.167 597.823V604.049L210.279 614.166L208.723 617.278L201.719 626.617L199.385 627.395H196.272L193.937 625.839H192.381L190.824 627.395V630.508V632.842L193.159 636.733V637.512V638.29V639.846L192.381 642.181L188.49 645.294L174.482 643.737L156.584 645.294L148.023 648.406L144.132 652.297L134.794 671.752L132.459 674.865L130.125 676.422L124.677 677.978L118.452 688.873L117.674 692.764L119.23 699.768L120.008 711.441L112.226 709.106L106.779 706.771L102.888 705.993L98.9965 706.771L97.44 707.55L94.3275 709.106L88.88 716.888L81.876 727.783L76.429 734.787L70.203 739.456L65.534 735.565L59.3085 712.997L56.974 709.106L54.639 705.993L53.083 705.215H51.5265L47.6355 704.437L45.301 705.993L33.628 713.775H22.733H20.3985L18.064 705.215L14.951 697.433L4.83451 687.316L2.5 683.425L5.61252 682.647L18.842 685.76L39.075 672.531L44.5225 667.861L50.748 667.083L53.861 670.974L56.974 672.531L60.0865 668.64L57.752 663.97L53.083 659.301L57.752 652.297L63.9775 644.515L66.312 640.624L71.7595 637.512L79.5415 632.064L84.211 625.06L86.5455 619.613L92.771 608.718L93.549 602.493L92.771 595.489L95.884 585.372L98.2185 572.143L120.008 512.221L145.689 436.736L147.245 437.514L154.249 441.405L157.362 442.962L161.253 444.518L170.591 446.853L172.926 446.074L176.039 443.74L183.042 440.627L197.828 442.183H203.276L209.501 443.74L212.614 446.074L217.283 450.744L220.396 454.635L221.174 455.413H222.731H225.843L227.4 454.635L228.178 453.856L232.069 446.853L234.404 445.296L236.738 444.518L238.295 443.74H239.851L242.186 445.296L243.742 446.853L246.077 455.413V458.526V464.751L246.855 467.086L247.633 469.42L249.189 470.977L251.524 468.642L256.193 462.417L263.975 457.747L273.314 449.965L278.761 450.744L279.539 448.409L281.874 449.187L284.208 450.744L287.321 458.526L290.434 465.529L291.212 470.199V473.311L289.656 475.646L287.321 477.202L285.765 478.759L288.099 479.537H290.434L302.107 474.868L311.445 463.973L314.558 463.195L319.227 465.529L321.562 464.751L323.118 463.195L323.897 460.082L322.34 457.747L319.227 454.635L318.449 453.856L317.671 450.744V448.409L321.562 441.405L334.013 430.51L342.573 434.401L351.134 422.728L355.025 425.063L356.581 426.619L358.137 428.954L358.916 431.289L357.359 442.183L358.137 448.409L369.81 467.086L366.698 469.42L365.141 470.977L364.363 474.868L365.141 477.202V478.759H365.919L364.363 483.428Z" stroke="black" stroke-width="5" stroke-linecap="round" stroke-linejoin="round"/>
<path d="M461.636 369.033L455.41 383.041L454.632 386.154L456.188 390.823L457.745 393.158L460.857 395.492L465.527 401.718L473.309 407.165L474.087 411.056L474.865 413.391V415.725V417.282L473.309 419.616L470.974 421.951L465.527 425.842L462.414 426.62L460.857 425.842L459.301 424.286V423.507L457.745 422.729L456.188 423.507L454.632 425.842L455.41 432.068L454.632 439.071L449.184 435.18L446.85 433.624L443.737 432.846H440.624L436.733 433.624L429.729 437.515L426.617 440.628L425.838 443.741L426.617 449.188V450.744L423.504 453.079H418.056H415.722L414.165 454.635L410.274 460.083L408.718 460.861H407.94L405.605 460.083L404.049 459.305L401.714 460.083L400.158 460.861L398.601 462.417L394.71 463.196H393.154L392.376 465.53V467.087L390.819 468.643H386.15L379.925 470.199L376.812 474.09L372.921 474.869H372.143L369.808 476.425L369.03 478.76L364.361 483.429L365.917 478.76H365.139V477.203L364.361 474.869L365.139 470.978L366.695 469.421L369.808 467.087L358.135 448.41L357.357 442.184L358.913 431.289L358.135 428.955L356.579 426.62L355.022 425.064L351.131 422.729L342.571 434.402L334.011 430.511L321.56 441.406L317.669 448.41V450.744L318.447 453.857L319.225 454.635L322.338 457.748L323.894 460.083L323.116 463.196L321.56 464.752L319.225 465.53L314.556 463.196L311.443 463.974L302.105 474.869L290.432 479.538H288.097L285.762 478.76L287.319 477.203L289.653 475.647L291.21 473.312V470.199L290.432 465.53L287.319 458.526L284.206 450.744L281.871 449.188L279.537 448.41L278.759 450.744L273.311 449.966L263.973 457.748L256.191 462.417L251.522 468.643L249.187 470.978L247.631 469.421L246.852 467.087L246.074 464.752V458.526V455.414L243.74 446.853L242.183 445.297L239.849 443.741H238.292L236.736 444.519L234.401 445.297L232.067 446.853L228.176 453.857L227.397 454.635L225.841 455.414H222.728H221.172L220.394 454.635L217.281 450.744L212.612 446.075L209.499 443.741L203.273 442.184H197.826L183.04 440.628L176.036 443.741L172.923 446.075L170.589 446.853L161.25 444.519L157.359 442.962L154.247 441.406L147.243 437.515L145.686 436.737L155.025 408.722L159.694 403.274L162.807 407.943L167.476 410.278L179.149 411.056V407.943L174.48 403.274L169.811 400.161L165.141 398.605L151.912 397.049L147.243 393.936L144.13 388.488V380.706L147.243 369.812L155.803 352.691L175.258 278.762L178.371 260.864V261.642L209.499 293.548L218.837 295.104L221.172 291.213L222.728 284.988L228.176 275.649L239.07 283.431L237.514 291.992V295.883L239.07 302.108L240.627 305.221L242.961 305.999L245.296 304.443L249.965 301.33L254.634 299.774L257.747 298.995L259.304 306.777L262.416 313.003L263.195 315.338L262.416 317.672L261.638 323.12L260.86 323.898L259.304 325.454L258.525 326.232L256.969 327.789L255.413 330.123L253.078 335.571L252.3 339.462V342.575L253.078 344.909L254.634 347.244L270.977 348.8L273.311 347.244L275.646 344.909L277.202 341.796L283.428 333.236L284.984 330.123L287.319 327.789L289.653 327.011H295.879L298.992 323.12V320.007L301.326 316.894L304.439 318.45L307.552 320.785L316.112 323.12L322.338 327.789L327.007 331.68L331.676 334.014L334.011 336.349H335.567L336.345 334.793L337.124 333.236V331.68L337.902 330.123L339.458 329.345L351.131 327.011L367.473 329.345L388.485 313.781L404.049 306.777L416.5 298.217L421.169 295.883L428.173 284.988L437.511 277.984L440.624 274.093L443.737 271.758L449.963 270.202L452.297 278.762L454.632 280.319L456.188 282.653V285.766L455.41 288.879L453.854 291.213L451.519 292.77L449.184 293.548L446.85 295.104L446.072 298.217L448.406 301.33L450.741 302.886L455.41 304.443L456.966 305.999V309.112L459.301 322.341L460.857 325.454L464.748 329.345L465.527 330.902V334.014L458.523 337.905L456.188 341.018L454.632 344.909L453.075 350.357L449.963 358.139L457.745 362.03L461.636 369.033Z" stroke="black" stroke-width="5" stroke-linecap="round" stroke-linejoin="round"/>
<path d="M301.328 316.891L298.993 320.004V323.117L295.88 327.008H289.655L287.32 327.786L284.986 330.12L283.429 333.233L277.204 341.793L275.647 344.906L273.313 347.241L270.978 348.797L254.636 347.241L253.079 344.906L252.301 342.572V339.459L253.079 335.568L255.414 330.12L256.97 327.786L258.527 326.229L259.305 325.451L260.861 323.895L261.64 323.117L262.418 317.669L263.196 315.335L262.418 313L259.305 306.774L257.749 298.992L254.636 299.771L249.967 301.327L245.297 304.44L242.963 305.996L240.628 305.218L239.072 302.105L237.515 295.88V291.989L239.072 283.428L228.177 275.646L222.73 284.985L221.173 291.21L218.839 295.101L209.5 293.545L178.372 261.639V260.861L179.15 256.191L184.598 239.071L187.711 217.281L188.489 216.503L190.045 214.947V222.729V225.063L195.493 215.725L200.162 212.612L204.053 214.947H205.609V212.612L204.831 211.834L204.053 209.499L203.275 207.165L204.053 204.83L206.387 203.274L207.944 204.83L209.5 206.387L211.057 207.943L213.391 206.387L215.726 204.052L219.617 197.826L214.948 194.714L212.613 190.044L213.391 186.153L218.06 184.597L225.064 183.819L229.733 182.262L234.403 179.15L239.072 174.48L233.624 175.259L226.621 178.371L221.173 179.928L219.617 180.706H218.06L211.835 177.593L209.5 174.48L207.166 164.364L218.06 149.578L215.726 141.018L214.948 147.243L213.391 152.691L211.057 154.247L209.5 148.8L205.609 156.582L202.496 165.92L200.94 176.815L200.162 186.153L198.605 191.601L195.493 200.939L191.602 208.721L188.489 212.612L215.726 85.7657V77.2055L218.06 76.4273L230.512 74.8709L235.181 77.9837L243.741 74.8709L248.41 71.758H251.523L254.636 72.5363L256.97 74.8709L260.861 77.2055H263.974L265.531 75.649L267.865 70.2017L268.643 68.6453L274.091 62.4197L279.538 68.6453L281.095 70.9799L282.651 74.8709L288.098 78.7619H290.433L291.211 77.2055V74.8709L289.655 72.5363V70.2017V68.6453L296.659 64.7543L302.884 67.0889L316.114 57.7505L316.892 56.194L318.448 52.303L335.569 63.1979L336.347 65.5325L337.125 69.4235V71.758V80.3183L358.136 90.4348H361.249L365.14 89.6567L367.475 84.9875L368.253 83.431L369.031 82.6528L372.922 79.54H374.479L375.257 81.0965L376.035 82.6528V83.431L375.257 84.2093V85.7657L365.918 98.995L365.14 102.886L363.584 107.555L364.362 109.89L365.14 114.559L366.697 124.676L369.031 130.901V135.57L367.475 137.905L365.14 138.683H362.806L360.471 137.905L358.136 135.57L355.802 134.792H352.689L347.242 137.905H344.129H341.016L338.681 136.349L330.121 137.127L333.234 148.8L332.456 151.134L330.121 155.025L324.674 167.477L317.67 175.259L311.444 180.706L308.332 185.375V186.932V188.488L309.11 190.823L309.888 193.157L313.779 197.826L316.114 200.939L316.892 203.274V213.39L319.226 218.838L320.005 219.616L325.452 221.951L330.121 225.842L318.448 229.733L316.892 232.067L315.335 234.402V237.515L318.448 245.297L320.005 252.3L321.561 254.635L323.896 256.191L325.452 258.526L328.565 263.973L313.001 270.199L306.775 275.646L305.997 277.203L306.775 280.316L309.888 284.985V289.654L308.332 292.767L300.55 305.996L301.328 316.891Z" stroke="black" stroke-width="5" stroke-linecap="round" stroke-linejoin="round"/>
<path d="M597.821 23.5114L590.039 48.4138L587.704 59.3086L586.926 66.3124L588.483 76.429L584.592 78.7636L577.588 77.9854L576.81 79.5418L577.588 81.8764L579.144 86.5456L581.479 88.102L584.592 90.4366L586.926 91.2148L588.483 93.5494V95.884V100.553L586.148 106.779L576.81 115.339L566.693 112.226L562.802 114.561L564.358 121.565L565.137 123.899L565.915 127.79V131.681L559.689 146.467L556.576 151.136L551.907 150.358L550.351 148.023L548.794 146.467L538.678 136.35L534.787 133.238L531.674 131.681H524.67L521.557 133.238L519.223 135.572L518.445 137.129L515.332 147.245L512.219 152.693L509.106 157.362L507.55 159.696L508.328 162.809L510.663 165.144L517.666 171.369L519.223 173.704L520.001 176.039V178.373L519.223 180.708L516.11 184.599L519.223 190.046L525.448 193.937L530.118 200.941L528.561 210.279L524.67 214.949L518.445 235.182L519.223 242.964L500.546 246.077L488.873 250.746L479.535 256.971L471.753 260.084L463.971 265.532L460.858 266.31L452.298 267.866L449.963 270.201L443.737 271.757L440.625 274.092L437.512 277.983L428.173 284.987L421.17 295.881L416.5 298.216L404.049 306.776L388.485 313.78L367.474 329.344L351.132 327.009L339.459 329.344L337.902 330.122L337.124 331.679V333.235L336.346 334.791L335.568 336.348H334.011L331.677 334.013L327.007 331.679L322.338 327.788L316.113 323.118L307.552 320.784L304.44 318.449L301.327 316.893L300.549 305.998L308.331 292.769L309.887 289.656V284.987L306.774 280.317L305.996 277.205L306.774 275.648L313 270.201L328.564 263.975L325.451 258.528L323.895 256.193L321.56 254.637L320.004 252.302L318.447 245.298L315.334 237.516V234.404L316.891 232.069L318.447 229.734L330.12 225.843L325.451 221.952L320.004 219.618L319.225 218.84L316.891 213.392V203.276L316.113 200.941L313.778 197.828L309.887 193.159L309.109 190.824L308.331 188.49V186.933V185.377L311.443 180.708L317.669 175.26L324.673 167.478L330.12 155.027L332.455 151.136L333.233 148.802L330.12 137.129L338.68 136.35L341.015 137.907H344.128H347.241L352.688 134.794H355.801L358.135 135.572L360.47 137.907L362.805 138.685H365.139L367.474 137.907L369.03 135.572V130.903L366.696 124.677L365.139 114.561L364.361 109.892L363.583 107.557L365.139 102.888L365.917 98.9968L375.256 85.7674V84.211L376.034 83.4328V82.6546L375.256 81.0982L374.478 79.5418H372.921L369.03 82.6546L368.252 83.4328L367.474 84.9892L365.139 89.6584L361.248 90.4366H358.135L337.124 80.32V71.7598V69.4252L336.346 65.5342L335.568 63.1996L318.447 52.3048L337.124 44.5228L346.462 42.9664L374.478 44.5228L383.038 43.7446L417.279 32.0716L429.73 24.2896L444.516 14.173L449.963 13.3948L453.854 15.7294L460.858 21.955L463.971 25.0678L468.64 25.846L474.087 26.6242L479.535 25.846L484.204 23.5114L492.764 18.064L496.655 15.7294H501.324H502.102L513.775 16.5076L527.005 14.9512L560.467 2.5H564.358L569.028 5.61275L577.588 18.064L580.701 21.1768L590.039 24.2896L597.821 23.5114Z" stroke="black" stroke-width="5" stroke-linecap="round" stroke-linejoin="round"/>
</svg>
