<svg width="205" height="241" viewBox="0 0 205 241" fill="none" xmlns="http://www.w3.org/2000/svg">
<path d="M165.144 198.606H162.031L158.918 199.385V197.05L156.584 192.381L153.471 185.377L151.136 177.595L153.471 172.148L147.245 172.926L144.132 166.7L142.576 158.14L139.463 149.58L151.914 123.899L158.918 112.226L169.035 105.222L174.482 103.666L186.933 102.888L192.381 100.553L202.497 92.7713V94.3276L201.719 95.884L200.163 96.6623L194.715 103.666L183.821 106.779L185.377 109.892L187.712 112.226L182.264 120.786L181.486 123.899L178.373 127.79L175.26 134.016L165.922 160.475L162.031 168.257L159.696 171.369L155.805 176.039V179.93L160.475 186.155L161.253 187.712L162.809 190.046L165.144 198.606ZM201.719 88.102L189.268 97.4404L165.144 100.553L161.253 103.666L155.805 113.783L141.798 133.238L126.234 164.366L117.674 174.482L114.561 179.93L113.004 185.377L113.783 192.381L114.561 204.832L115.339 213.392L111.448 221.952L96.662 225.843L81.098 228.956L62.4215 227.4L57.752 231.291L52.3045 237.516L41.41 230.513L28.9585 225.065L21.955 224.287L10.282 225.843L4.0565 224.287L4.83451 216.505L6.391 210.279L2.5 194.715V186.933L4.0565 183.821L7.9475 179.151L14.951 172.148L23.5115 143.354L22.733 120.786L19.6205 107.557L22.733 98.9968L23.5115 89.6584L35.1845 69.4253L38.297 59.3086L43.7445 46.0793L45.301 32.8498L46.8575 21.1768L45.301 11.8384H47.6355H58.5305L70.2035 4.05638L72.538 2.5L76.429 3.27825H77.9855L79.5415 4.05638L81.8765 7.16925L84.211 11.0602L90.4365 33.628L95.1055 37.519L101.331 32.8498L106.779 25.846L113.783 14.9512L119.23 7.16925L122.343 5.61275L123.899 4.83462L127.79 4.05638L131.681 4.83462L137.129 7.16925L144.911 9.50375L148.023 18.064L147.245 23.5114L166.7 28.9588L178.373 25.846L180.708 31.2934L194.715 45.301L190.824 48.4138L186.155 49.9703L178.373 49.192L174.482 50.7484L170.591 53.8613V55.4176L172.148 57.7523L174.482 58.5304L176.039 60.0868L178.373 64.756L179.151 67.0906L187.712 74.8726L189.268 76.429L195.494 78.7636L197.05 80.32L198.606 81.0983L199.385 83.4328L201.719 88.102ZM131.681 165.922L133.238 165.144V167.478L131.681 172.926L127.79 178.373L122.343 183.821L120.786 183.042L123.121 176.817L125.456 171.369L128.568 168.257L130.903 166.7L131.681 165.922Z" stroke="black" stroke-width="5" stroke-linecap="round" stroke-linejoin="round"/>
</svg>
