<svg width="120" height="103" viewBox="0 0 120 103" fill="none" xmlns="http://www.w3.org/2000/svg">
<mask id="path-1-inside-1_302_151" fill="white">
<path d="M74.5569 53.5896C69.9569 48.4896 64.0569 51.2896 58.1569 49.5896C52.7569 47.9896 49.4569 42.5896 44.5569 39.8896C42.4569 38.7896 40.7569 38.5896 38.3569 38.4896C35.1569 38.3896 32.0569 37.7896 28.8569 37.4896C24.4569 37.1896 20.7569 37.4896 16.9569 34.8896C14.8569 33.4896 12.6569 30.2896 10.0569 29.5896C6.1569 28.5896 1.7569 34.8896 0.556901 37.8896C-1.6431 43.0896 3.1569 47.3896 6.5569 50.5896C11.3569 55.1896 16.0569 60.1896 22.2569 62.8896C25.0569 64.0896 27.9569 65.1896 30.7569 66.3896C34.1569 67.8896 36.4569 69.6896 39.4569 71.7896C43.6569 74.7896 50.7569 71.9896 54.4569 68.9896C60.6569 64.1896 63.3569 54.3896 72.5569 55.9896C72.7569 55.9896 72.8569 55.9896 72.9569 55.9896C74.2569 56.4896 75.6569 54.7896 74.5569 53.5896ZM60.7569 56.9896C58.4569 59.4896 56.7569 62.3896 54.3569 64.8896C52.0569 67.1896 45.1569 71.4896 41.4569 69.5896C38.7569 68.1896 36.7569 65.7896 33.8569 64.4896C30.8569 63.0896 27.8569 61.6896 24.7569 60.5896C17.3569 57.9896 10.7569 51.4896 5.75691 45.6896C3.15691 42.6896 2.65691 39.0896 5.25691 36.0896C7.15691 33.6896 9.05691 32.8896 11.9569 34.5896C14.2569 35.9896 15.7569 37.8896 18.3569 38.9896C21.6569 40.4896 24.5569 40.1896 28.1569 40.3896C31.3569 40.5896 34.5569 41.2896 37.8569 41.4896C42.0569 41.7896 44.9569 42.8896 48.1569 45.8896C50.1569 47.7896 51.8569 49.9896 54.3569 51.2896C56.1569 52.1896 58.4569 52.9896 60.4569 53.1896C62.7569 53.4896 64.9569 53.0896 67.0569 53.1896C64.6569 53.7896 62.6569 54.8896 60.7569 56.9896Z"/>
</mask>
<path d="M74.5569 53.5896C69.9569 48.4896 64.0569 51.2896 58.1569 49.5896C52.7569 47.9896 49.4569 42.5896 44.5569 39.8896C42.4569 38.7896 40.7569 38.5896 38.3569 38.4896C35.1569 38.3896 32.0569 37.7896 28.8569 37.4896C24.4569 37.1896 20.7569 37.4896 16.9569 34.8896C14.8569 33.4896 12.6569 30.2896 10.0569 29.5896C6.1569 28.5896 1.7569 34.8896 0.556901 37.8896C-1.6431 43.0896 3.1569 47.3896 6.5569 50.5896C11.3569 55.1896 16.0569 60.1896 22.2569 62.8896C25.0569 64.0896 27.9569 65.1896 30.7569 66.3896C34.1569 67.8896 36.4569 69.6896 39.4569 71.7896C43.6569 74.7896 50.7569 71.9896 54.4569 68.9896C60.6569 64.1896 63.3569 54.3896 72.5569 55.9896C72.7569 55.9896 72.8569 55.9896 72.9569 55.9896C74.2569 56.4896 75.6569 54.7896 74.5569 53.5896ZM60.7569 56.9896C58.4569 59.4896 56.7569 62.3896 54.3569 64.8896C52.0569 67.1896 45.1569 71.4896 41.4569 69.5896C38.7569 68.1896 36.7569 65.7896 33.8569 64.4896C30.8569 63.0896 27.8569 61.6896 24.7569 60.5896C17.3569 57.9896 10.7569 51.4896 5.75691 45.6896C3.15691 42.6896 2.65691 39.0896 5.25691 36.0896C7.15691 33.6896 9.05691 32.8896 11.9569 34.5896C14.2569 35.9896 15.7569 37.8896 18.3569 38.9896C21.6569 40.4896 24.5569 40.1896 28.1569 40.3896C31.3569 40.5896 34.5569 41.2896 37.8569 41.4896C42.0569 41.7896 44.9569 42.8896 48.1569 45.8896C50.1569 47.7896 51.8569 49.9896 54.3569 51.2896C56.1569 52.1896 58.4569 52.9896 60.4569 53.1896C62.7569 53.4896 64.9569 53.0896 67.0569 53.1896C64.6569 53.7896 62.6569 54.8896 60.7569 56.9896Z" stroke="#3A3A3A" stroke-width="10" mask="url(#path-1-inside-1_302_151)"/>
<mask id="path-2-inside-2_302_151" fill="white">
<path d="M117.457 0.589541C114.357 -1.11046 111.657 1.18956 109.757 3.38956C108.157 5.18956 106.957 5.68954 106.257 8.08954C105.557 10.4895 106.257 12.7896 106.257 15.2896C106.257 16.9896 108.457 17.1896 109.057 15.9896C109.457 15.7896 109.757 15.3896 109.757 14.7896C109.757 12.6896 113.357 11.5896 114.857 10.8896C116.557 10.0896 118.057 9.08956 118.857 7.38956C120.157 5.08956 119.857 1.88954 117.457 0.589541ZM116.657 4.98957C116.257 7.78957 112.457 8.48955 110.557 9.68955C109.957 9.98955 109.457 10.3896 108.957 10.7896C108.957 10.3896 108.957 9.98955 108.957 9.68955C109.157 7.98955 110.457 7.08957 111.557 5.98957C112.557 4.98957 113.057 3.58955 114.557 3.18955C115.957 2.78955 116.857 3.58957 116.657 4.98957Z"/>
</mask>
<path d="M117.457 0.589541C114.357 -1.11046 111.657 1.18956 109.757 3.38956C108.157 5.18956 106.957 5.68954 106.257 8.08954C105.557 10.4895 106.257 12.7896 106.257 15.2896C106.257 16.9896 108.457 17.1896 109.057 15.9896C109.457 15.7896 109.757 15.3896 109.757 14.7896C109.757 12.6896 113.357 11.5896 114.857 10.8896C116.557 10.0896 118.057 9.08956 118.857 7.38956C120.157 5.08956 119.857 1.88954 117.457 0.589541ZM116.657 4.98957C116.257 7.78957 112.457 8.48955 110.557 9.68955C109.957 9.98955 109.457 10.3896 108.957 10.7896C108.957 10.3896 108.957 9.98955 108.957 9.68955C109.157 7.98955 110.457 7.08957 111.557 5.98957C112.557 4.98957 113.057 3.58955 114.557 3.18955C115.957 2.78955 116.857 3.58957 116.657 4.98957Z" stroke="#3A3A3A" stroke-width="10" mask="url(#path-2-inside-2_302_151)"/>
<mask id="path-3-inside-3_302_151" fill="white">
<path d="M98.1569 97.4895C97.9569 96.3895 97.3569 95.5895 96.9569 94.6895C96.5569 93.5895 96.2569 92.4895 95.2569 91.7895C94.2569 91.0895 92.9569 91.0895 91.9569 91.7895C87.6569 94.8895 91.6569 101.79 95.8569 102.49C96.8569 102.69 97.4569 101.99 97.6569 101.29C98.1569 100.09 98.3569 98.7895 98.1569 97.4895ZM93.2569 94.6895C93.6569 93.9895 93.6569 94.2895 93.8569 94.8895C94.0569 95.3895 94.1569 95.8895 94.3569 96.2895C94.7569 97.2895 95.2569 97.9895 95.1569 98.8895C93.7569 98.0895 92.4569 96.1895 93.2569 94.6895Z"/>
</mask>
<path d="M98.1569 97.4895C97.9569 96.3895 97.3569 95.5895 96.9569 94.6895C96.5569 93.5895 96.2569 92.4895 95.2569 91.7895C94.2569 91.0895 92.9569 91.0895 91.9569 91.7895C87.6569 94.8895 91.6569 101.79 95.8569 102.49C96.8569 102.69 97.4569 101.99 97.6569 101.29C98.1569 100.09 98.3569 98.7895 98.1569 97.4895ZM93.2569 94.6895C93.6569 93.9895 93.6569 94.2895 93.8569 94.8895C94.0569 95.3895 94.1569 95.8895 94.3569 96.2895C94.7569 97.2895 95.2569 97.9895 95.1569 98.8895C93.7569 98.0895 92.4569 96.1895 93.2569 94.6895Z" stroke="#3A3A3A" stroke-width="10" mask="url(#path-3-inside-3_302_151)"/>
<mask id="path-4-inside-4_302_151" fill="white">
<path d="M93.0569 81.0895C91.4569 78.3895 90.3569 74.5895 86.5569 74.5895C83.3569 74.5895 83.0569 77.5895 84.1569 79.9895C84.7569 81.2895 85.6569 82.4895 86.6569 83.5895C87.5569 84.5895 88.4569 85.2895 89.0569 86.4895C89.5569 87.3895 89.9569 88.2895 90.6569 89.0895C91.1569 89.6895 91.7569 89.6895 92.2569 89.4895C93.7569 89.1895 94.9569 87.8895 95.2569 86.2895C95.4569 84.1895 93.9569 82.6895 93.0569 81.0895ZM88.9569 81.5895C88.0569 80.6895 86.6569 79.0895 86.4569 77.6895C86.4569 77.5895 86.4569 77.4895 86.4569 77.4895C86.9569 77.3895 87.4569 77.7895 87.7569 77.9895C88.4569 78.4895 88.8569 79.3895 89.2569 80.1895C89.6569 80.9895 89.9569 81.7895 90.4569 82.4895C90.7569 82.9895 92.2569 84.6895 92.0569 85.6895C91.6569 84.9895 91.3569 84.2895 90.9569 83.5895C90.3569 82.9895 89.6569 82.2895 88.9569 81.5895Z"/>
</mask>
<path d="M93.0569 81.0895C91.4569 78.3895 90.3569 74.5895 86.5569 74.5895C83.3569 74.5895 83.0569 77.5895 84.1569 79.9895C84.7569 81.2895 85.6569 82.4895 86.6569 83.5895C87.5569 84.5895 88.4569 85.2895 89.0569 86.4895C89.5569 87.3895 89.9569 88.2895 90.6569 89.0895C91.1569 89.6895 91.7569 89.6895 92.2569 89.4895C93.7569 89.1895 94.9569 87.8895 95.2569 86.2895C95.4569 84.1895 93.9569 82.6895 93.0569 81.0895ZM88.9569 81.5895C88.0569 80.6895 86.6569 79.0895 86.4569 77.6895C86.4569 77.5895 86.4569 77.4895 86.4569 77.4895C86.9569 77.3895 87.4569 77.7895 87.7569 77.9895C88.4569 78.4895 88.8569 79.3895 89.2569 80.1895C89.6569 80.9895 89.9569 81.7895 90.4569 82.4895C90.7569 82.9895 92.2569 84.6895 92.0569 85.6895C91.6569 84.9895 91.3569 84.2895 90.9569 83.5895C90.3569 82.9895 89.6569 82.2895 88.9569 81.5895Z" stroke="#3A3A3A" stroke-width="10" mask="url(#path-4-inside-4_302_151)"/>
</svg>
