<svg width="760" height="436" viewBox="0 0 760 436" fill="none" xmlns="http://www.w3.org/2000/svg">
<path d="M200.163 131.681L199.385 132.459H195.494L169.035 147.245L162.031 149.58L137.129 150.358L133.238 151.914L129.347 153.471L127.012 155.027L122.343 158.918L116.895 161.253L115.339 160.475H113.004H110.67L109.113 162.031L106.779 164.366L106.001 166.7L105.222 169.813L104.444 176.039V178.373L103.666 180.708L100.553 183.821L99.775 186.155L98.997 188.49L99.775 192.381L95.106 201.719L93.5495 200.941L90.437 200.163L87.324 198.606L81.8765 197.828L73.3165 194.715L70.982 193.159L70.2035 193.937L68.647 195.494L67.091 197.828H63.978L49.9705 198.606L28.959 206.388H26.6245L21.177 205.61H19.6205V200.941L17.286 193.937L16.508 185.377L17.286 180.708L23.5115 178.373L41.41 175.26L46.0795 173.704L50.7485 169.813L54.6395 165.922L23.5115 175.26L16.508 176.817L13.395 176.039L7.94749 172.926L2.5 160.475V149.58L4.83498 132.459L3.27848 121.565L4.05649 117.674L6.391 114.561L25.846 97.4404L35.963 86.5456L39.0755 72.538L42.1885 70.2034L48.414 67.0906L56.196 64.756L61.6435 60.865L63.978 56.974L67.091 49.192L69.4255 45.301L74.0945 41.41L78.764 40.6318L88.8805 39.8536L94.328 38.2972L104.444 31.2934L109.113 28.9588L152.693 21.955L158.14 19.6204L165.144 13.3948L167.478 11.8384L169.813 11.0602H174.482L179.93 8.72562L188.49 2.50002L190.824 6.39102L193.159 11.8384L192.381 28.1806L193.159 34.4062L197.05 37.519L200.941 35.9626L206.388 33.628L211.836 32.8498L217.283 35.1844L221.952 39.8536L224.287 45.301L223.509 52.3048L220.396 56.974L215.727 60.865L207.945 65.5342L199.385 74.0944L188.49 90.4366L186.155 96.6622L185.377 104.444L188.49 110.67L198.606 114.561L200.941 117.674L201.719 123.121L200.163 131.681Z" stroke="black" stroke-width="5" stroke-linecap="round" stroke-linejoin="round"/>
<path d="M553.466 419.615L548.797 418.059H536.346L511.443 404.829L508.33 400.938L506.774 396.269L505.218 390.822V387.709L506.774 384.596V381.483L504.439 380.705L502.105 379.927L500.548 379.149L498.214 377.592L497.436 376.036L498.992 373.701L501.327 365.919L498.214 366.698L487.319 374.48L484.984 378.371H479.537L470.199 376.036L448.409 377.592L440.627 378.371L431.289 375.258L428.176 372.145L419.616 359.694L414.946 356.581H411.055L412.612 351.912L413.39 349.577L414.168 348.021L417.281 346.464L421.172 345.686L421.95 344.908V343.352L421.172 341.017L421.95 337.904L422.728 332.457L425.063 329.344L428.176 326.231L428.954 324.675L428.176 322.34L428.954 318.449L433.623 313.002L443.74 309.889L436.736 305.998L434.401 302.885L432.067 298.216L430.51 290.434V271.757L439.849 264.753L442.183 263.975L445.296 262.419L447.631 259.306L449.187 253.08L453.078 246.855L455.413 243.742L458.526 242.186H460.86L463.195 241.407L465.529 240.629L466.308 238.295L465.529 235.96L464.751 233.625L463.195 231.291L461.638 228.956L460.86 225.843V220.396L461.638 210.279L470.977 179.151L477.981 164.366L480.315 162.031L481.872 161.253L483.428 158.918L484.206 156.584V151.136V148.023L478.759 141.02L476.424 134.016L475.646 130.903L474.868 123.899L475.646 116.117L476.424 112.226L474.09 105.222V102.888L477.202 98.2186L477.981 91.993L475.646 80.32L476.424 74.8726L478.759 72.538L482.65 69.4253L488.097 66.3124L491.988 65.5343L501.327 70.9816L509.887 78.7636L518.447 82.6546L528.564 78.7636L534.789 73.3163L537.902 74.8726L541.793 77.2073L548.797 82.6546L556.579 84.211L573.699 82.6546L580.703 77.9854L582.259 67.0906L590.82 68.647L600.936 84.211L609.496 87.3239L629.73 86.5456L639.068 83.4329L642.959 74.8726L649.963 77.9854L653.854 82.6546L654.632 88.8803L652.297 105.222L654.632 108.335H660.079L667.083 111.448L663.97 118.452L656.967 149.58L656.188 152.693L653.854 155.805L652.297 159.696L653.076 162.809L654.632 165.922L656.188 169.813L656.967 176.817L658.523 183.821L662.414 190.046L670.196 193.159L673.309 192.381L677.2 190.046L681.091 187.712L683.425 185.377L684.982 183.042L688.873 183.821L711.441 188.49L725.448 193.159L737.899 201.719L750.351 214.17L754.242 219.618L756.576 223.509L743.347 242.964L736.343 250.746L734.008 254.637L734.787 257.75L735.565 260.084V263.197L724.67 280.317V283.43L715.332 284.208L711.441 285.765L708.328 288.878H709.106V291.212V294.325L708.328 295.881L706.771 296.66L703.659 295.881H702.102L693.542 310.667L684.204 320.006L678.756 323.897L674.865 327.009L658.523 334.013L656.188 336.348H637.512L632.842 337.126L629.73 341.017L619.613 355.803L617.278 362.028L615.722 365.141L605.605 373.701L601.714 378.371L600.936 380.705L601.714 390.044L599.38 397.047L588.485 413.39L584.594 417.281L576.812 418.059L558.913 416.502L553.466 419.615Z" stroke="black" stroke-width="5" stroke-linecap="round" stroke-linejoin="round"/>
<path d="M474.09 102.889V105.223L476.425 112.227L475.647 116.118L474.868 123.9L475.647 130.904L476.425 134.017L478.759 141.02L484.207 148.024V151.137V156.584L483.429 158.919L481.872 161.254L480.316 162.032L477.981 164.366L470.977 179.152L461.639 210.28L460.861 220.397V225.844L461.639 228.957L463.195 231.292L464.752 233.626L465.53 235.961L466.308 238.295L465.53 240.63L463.195 241.408L460.861 242.186H458.526L455.413 243.743L453.079 246.856L449.188 253.081L447.631 259.307L445.297 262.42L442.184 263.976L439.849 264.754L430.511 271.758V290.435L432.067 298.217L434.402 302.886L436.737 305.999L443.74 309.89L433.624 313.003L428.955 318.45L428.176 322.341L428.955 324.676L428.176 326.232L425.064 329.345L422.729 332.458L421.951 337.905L421.173 341.018L421.951 343.352V344.909L421.173 345.687L417.282 346.465L414.169 348.022L413.391 349.578L412.612 351.913L411.056 356.582L377.593 369.033L364.364 370.589L352.691 369.811H351.913H347.244L343.353 372.146L334.792 377.593L330.123 379.928L324.676 380.706L319.228 379.928L314.559 379.15L311.446 376.037L304.443 369.811L300.552 367.477L295.104 368.255L280.318 378.371L281.875 369.033V360.473L285.766 344.909L284.988 344.131L281.097 341.796L276.427 333.236L274.871 327.788L276.427 322.341L268.645 316.894L264.754 314.559L262.42 311.446V308.333V304.442L257.751 298.995L260.085 291.991V290.435L259.307 287.322L260.085 286.544L260.863 285.766L262.42 284.987L263.198 281.875L267.089 275.649L267.867 272.536L268.645 270.98L267.089 267.867L269.424 259.307L272.536 255.416L274.093 254.638H274.871H277.206L280.318 252.303L281.875 247.634L282.653 246.856L288.1 243.743L291.213 240.63L302.886 223.51L303.664 218.84L298.995 210.28L297.439 208.724L294.326 207.167L288.879 213.393L280.318 216.506L276.427 215.728L265.533 213.393L263.198 212.615L260.085 211.058L256.972 210.28L251.525 207.946L252.303 190.825L253.081 187.712L253.86 183.043L253.081 180.709L252.303 179.152L244.521 174.483L242.965 173.705H240.63L235.961 176.039H233.626H231.292H228.957H226.623L225.066 176.818L221.175 177.596H217.284L224.288 169.814L225.066 167.479L226.623 164.366L229.735 155.806L232.07 151.137L234.405 140.242L235.183 137.908L236.739 135.573L237.517 133.238V131.682L236.739 130.904L237.517 130.126L246.078 120.787L249.19 116.118L252.303 112.227L256.972 110.671L260.863 111.449H266.311L269.424 106.78L270.202 99.7758L271.758 95.8848L277.206 93.5502L277.984 103.667L280.318 114.562H288.879L291.213 112.227L291.991 109.892L293.548 108.336L295.882 106.78L303.664 107.558L321.563 102.889L329.345 98.9976L334.014 100.554L341.796 106.001L346.465 108.336L361.251 109.114L357.36 120.787V124.678L362.029 127.013L366.699 127.791L372.924 126.235L378.372 124.678L383.041 121.565L384.597 118.453V116.118L385.375 113.783L387.71 112.227H389.266L393.936 115.34H396.27L400.161 116.896L404.052 121.565L407.165 128.569L407.943 134.795L411.834 130.904L418.838 123.122L422.729 120.787L426.62 120.009H436.737L442.184 119.231L461.639 112.227L470.977 106.78L474.09 102.889Z" stroke="black" stroke-width="5" stroke-linecap="round" stroke-linejoin="round"/>
<path d="M19.6226 205.609H21.1791L26.6265 206.387H28.9611L49.9725 198.605L63.9801 197.827H67.093L68.6491 195.493L70.2056 193.936L70.984 193.158L73.3185 194.714L81.8786 197.827L87.3261 198.605L90.439 200.162L93.5516 200.94L95.1081 201.718L99.7771 192.38L98.9991 188.489L99.7771 186.154L100.556 183.82L103.668 180.707L104.447 178.372V176.038L105.225 169.812L106.003 166.699L106.781 164.365L109.116 162.03L110.672 160.474H113.007H115.341L116.898 161.252L122.345 158.917L127.014 155.026L129.349 153.47L133.24 151.913L137.131 150.357L162.033 149.579L169.037 147.244L195.496 132.458H199.387L200.165 131.68V132.458L224.289 134.015L236.741 130.902L237.519 131.68V133.237L236.741 135.571L235.184 137.906L234.406 140.24L232.071 151.135L229.737 155.804L226.624 164.365L225.068 167.477L224.289 169.812L217.286 177.594H221.177L225.068 176.816L226.624 176.038H228.959H231.293H233.628H235.962L240.632 173.703H242.966L244.523 174.481L252.305 179.15L253.083 180.707L253.861 183.041L253.083 187.711L252.305 190.823L251.526 207.944L256.974 210.278L260.087 211.057L263.199 212.613L265.534 213.391L276.429 215.726L280.32 216.504L288.88 213.391L294.327 207.166L297.44 208.722L298.997 210.278L303.666 218.839L302.888 223.508L291.215 240.628L288.102 243.741L282.654 246.854L281.876 247.632L280.32 252.301L277.207 254.636H274.872H274.094L272.538 255.414L269.425 259.305L267.09 267.865L268.647 270.978L267.869 272.534L267.09 275.647L263.199 281.873L262.421 284.986L260.865 285.764L260.087 286.542L259.308 287.32L260.087 290.433V291.989L257.752 298.993L256.974 302.884L256.196 304.441L255.417 305.997L253.861 307.553L252.305 308.332L250.748 309.888L249.192 311.444L247.635 313.001L245.301 314.557L243.744 315.335L240.632 316.114L237.519 313.001L231.293 309.888L228.18 310.666L219.62 306.775L209.504 298.993V295.102L208.725 293.546L203.278 287.32L189.27 281.873L184.601 288.877L179.154 292.768L170.594 296.659L168.259 297.437L162.033 299.771H159.699L155.808 297.437L153.473 296.659L142.578 298.215L133.24 300.55L126.236 298.993L124.68 297.437L122.345 296.659H119.232L113.785 298.215L109.116 301.328L106.781 302.884L104.447 304.441L102.112 305.219L99.7771 305.997H84.2131L81.1005 306.775H80.3221L77.9876 305.219L76.4311 302.884L75.6531 297.437L74.875 295.102L77.2095 291.989L80.3221 291.211L81.8786 290.433L82.657 288.098L81.8786 285.764L78.766 283.429L75.6531 282.651L71.7621 280.316L67.093 274.869L64.7581 273.313L62.4236 270.978L60.0891 270.2L53.0851 269.422L45.3031 266.309L39.0776 262.418H32.074V261.64L28.9611 253.079L28.183 245.297L27.4046 239.85L26.6265 233.624L22.7355 222.73L21.1791 214.169L19.6226 207.944V205.609Z" stroke="black" stroke-width="5" stroke-linecap="round" stroke-linejoin="round"/>
<path d="M257.751 298.993L262.42 304.44V308.331V311.444L264.754 314.557L268.645 316.891L276.427 322.339L274.871 327.786L276.427 333.233L281.097 341.794L284.988 344.128L285.766 344.906L281.875 360.47V369.031L280.318 378.369L267.867 386.151L233.626 397.824L225.066 398.602L197.051 397.046L187.713 398.602L169.036 406.384L167.479 410.275L166.701 411.832L153.472 421.17L147.246 418.835L140.242 422.726V424.283V426.617L141.799 428.952V431.287L141.021 432.843H138.686L133.239 428.952L131.682 425.061L130.126 422.726L124.678 416.501L119.231 422.726L118.453 424.283L116.118 429.73L114.562 431.287H111.449L107.558 428.952L105.223 426.617L102.111 425.839H98.998L94.329 428.952L85.7685 432.065L81.0995 428.952L68.648 430.508L66.3135 431.287V425.839L62.4225 400.937L63.201 387.707L67.87 383.038V380.704L57.7535 377.591L52.306 367.474L48.415 354.245L42.9675 344.128L44.524 338.681L43.746 334.79L42.1895 330.899L40.633 326.23V314.557L39.855 310.666L37.52 309.887L36.742 305.996L35.1855 302.105L31.2945 295.102L29.738 289.654V284.985L28.96 274.09L32.073 262.417H39.0765L45.302 266.308L53.084 269.421L60.088 270.199L62.4225 270.977L64.757 273.312L67.092 274.868L71.761 280.316L75.652 282.65L78.765 283.429L81.8775 285.763L82.656 288.098L81.8775 290.432L80.321 291.211L77.2085 291.989L74.874 295.102L75.652 297.436L76.43 302.884L77.9865 305.218L80.321 306.775H81.0995L84.212 305.996H99.776L102.111 305.218L104.445 304.44L106.78 302.884L109.114 301.327L113.784 298.214L119.231 296.658H122.344L124.678 297.436L126.235 298.993L133.239 300.549L142.577 298.214L153.472 296.658L155.806 297.436L159.697 299.771H162.032L168.258 297.436L170.592 296.658L179.152 292.767L184.6 288.876L189.269 281.872L203.277 287.32L208.724 293.545L209.502 295.102V298.993L219.619 306.775L228.179 310.666L231.292 309.887L237.517 313L240.63 316.113L243.743 315.335L245.299 314.557L247.634 313L249.19 311.444L250.747 309.887L252.303 308.331L253.86 307.553L255.416 305.996L256.194 304.44L256.972 302.884L257.751 298.993Z" stroke="black" stroke-width="5" stroke-linecap="round" stroke-linejoin="round"/>
</svg>
